<svg width="2099" height="289" xmlns="http://www.w3.org/2000/svg" xmlns:xlink="http://www.w3.org/1999/xlink" xml:space="preserve" overflow="hidden"><g transform="translate(-1100 -1883)"><g><path d="M1.66401e-05-6.875 270.711-6.87434 270.711 6.87566-1.66401e-05 6.875ZM270.711 0.000655224 256.961-20.6244 298.211 0.000721785 256.961 20.6256Z" fill="#000000" fill-rule="nonzero" fill-opacity="1" transform="matrix(1 0 0 -1 1580 2026)"/><path d="M1140.25 2165.5C1159.44 2165.5 1175 2103.27 1175 2026.5 1175 1949.73 1159.44 1887.5 1140.25 1887.5L1545.75 1887.5C1564.94 1887.5 1580.5 1949.73 1580.5 2026.5 1580.5 2103.27 1564.94 2165.5 1545.75 2165.5Z" fill="#3B7D23" fill-rule="evenodd" fill-opacity="1"/><path d="M1140.25 2165.5C1121.06 2165.5 1105.5 2103.27 1105.5 2026.5 1105.5 1949.73 1121.06 1887.5 1140.25 1887.5 1159.44 1887.5 1175 1949.73 1175 2026.5 1175 2103.27 1159.44 2165.5 1140.25 2165.5Z" fill="#89B17B" fill-rule="evenodd" fill-opacity="1"/><path d="M1140.25 1887.5C1159.44 1887.5 1175 1949.73 1175 2026.5 1175 2103.27 1159.44 2165.5 1140.25 2165.5 1121.06 2165.5 1105.5 2103.27 1105.5 2026.5 1105.5 1949.73 1121.06 1887.5 1140.25 1887.5L1545.75 1887.5C1564.94 1887.5 1580.5 1949.73 1580.5 2026.5 1580.5 2103.27 1564.94 2165.5 1545.75 2165.5L1140.25 2165.5" stroke="#2D601B" stroke-width="6.875" stroke-linecap="butt" stroke-linejoin="miter" stroke-miterlimit="8" stroke-opacity="1" fill="none" fill-rule="evenodd"/><text fill="#E8E8E8" fill-opacity="1" font-family="Aptos,Aptos_MSFontService,sans-serif" font-style="normal" font-variant="normal" font-weight="400" font-stretch="normal" font-size="101" text-anchor="start" direction="ltr" writing-mode="lr-tb" unicode-bidi="normal" text-decoration="none" transform="matrix(1 0 0 1 1233.83 2052)">Fetch</text><path d="M1935.25 2165.5C1954.44 2165.5 1970 2103.27 1970 2026.5 1970 1949.73 1954.44 1887.5 1935.25 1887.5L2340.75 1887.5C2359.94 1887.5 2375.5 1949.73 2375.5 2026.5 2375.5 2103.27 2359.94 2165.5 2340.75 2165.5Z" fill="#46B1E1" fill-rule="evenodd" fill-opacity="1"/><path d="M1935.25 2165.5C1916.06 2165.5 1900.5 2103.27 1900.5 2026.5 1900.5 1949.73 1916.06 1887.5 1935.25 1887.5 1954.44 1887.5 1970 1949.73 1970 2026.5 1970 2103.27 1954.44 2165.5 1935.25 2165.5Z" fill="#90D0ED" fill-rule="evenodd" fill-opacity="1"/><path d="M1935.25 1887.5C1954.44 1887.5 1970 1949.73 1970 2026.5 1970 2103.27 1954.44 2165.5 1935.25 2165.5 1916.06 2165.5 1900.5 2103.27 1900.5 2026.5 1900.5 1949.73 1916.06 1887.5 1935.25 1887.5L2340.75 1887.5C2359.94 1887.5 2375.5 1949.73 2375.5 2026.5 2375.5 2103.27 2359.94 2165.5 2340.75 2165.5L1935.25 2165.5" stroke="#348AB3" stroke-width="6.875" stroke-linecap="butt" stroke-linejoin="miter" stroke-miterlimit="8" stroke-opacity="1" fill="none" fill-rule="evenodd"/><text fill="#E8E8E8" fill-opacity="1" font-family="Aptos,Aptos_MSFontService,sans-serif" font-style="normal" font-variant="normal" font-weight="400" font-stretch="normal" font-size="101" text-anchor="start" direction="ltr" writing-mode="lr-tb" unicode-bidi="normal" text-decoration="none" transform="matrix(1 0 0 1 1991.59 2052)">Decode</text><path d="M2730.25 2165.5C2749.44 2165.5 2765 2103.27 2765 2026.5 2765 1949.73 2749.44 1887.5 2730.25 1887.5L3135.75 1887.5C3154.94 1887.5 3170.5 1949.73 3170.5 2026.5 3170.5 2103.27 3154.94 2165.5 3135.75 2165.5Z" fill="#E97132" fill-rule="evenodd" fill-opacity="1"/><path d="M2730.25 2165.5C2711.06 2165.5 2695.5 2103.27 2695.5 2026.5 2695.5 1949.73 2711.06 1887.5 2730.25 1887.5 2749.44 1887.5 2765 1949.73 2765 2026.5 2765 2103.27 2749.44 2165.5 2730.25 2165.5Z" fill="#F2AA84" fill-rule="evenodd" fill-opacity="1"/><path d="M2730.25 1887.5C2749.44 1887.5 2765 1949.73 2765 2026.5 2765 2103.27 2749.44 2165.5 2730.25 2165.5 2711.06 2165.5 2695.5 2103.27 2695.5 2026.5 2695.5 1949.73 2711.06 1887.5 2730.25 1887.5L3135.75 1887.5C3154.94 1887.5 3170.5 1949.73 3170.5 2026.5 3170.5 2103.27 3154.94 2165.5 3135.75 2165.5L2730.25 2165.5" stroke="#AA5426" stroke-width="6.875" stroke-linecap="butt" stroke-linejoin="miter" stroke-miterlimit="8" stroke-opacity="1" fill="none" fill-rule="evenodd"/><text fill="#E8E8E8" fill-opacity="1" font-family="Aptos,Aptos_MSFontService,sans-serif" font-style="normal" font-variant="normal" font-weight="400" font-stretch="normal" font-size="101" text-anchor="start" direction="ltr" writing-mode="lr-tb" unicode-bidi="normal" text-decoration="none" transform="matrix(1 0 0 1 2788.27 2052)">Execute</text><path d="M1.66401e-05-6.875 270.711-6.87434 270.711 6.87566-1.66401e-05 6.875ZM270.711 0.000655224 256.961-20.6244 298.211 0.000721785 256.961 20.6256Z" fill="#000000" fill-rule="nonzero" fill-opacity="1" transform="matrix(1 0 0 -1 2375 2020)"/></g></g></svg>