<svg width="2709" height="1439" xmlns="http://www.w3.org/2000/svg" xmlns:xlink="http://www.w3.org/1999/xlink" xml:space="preserve" overflow="hidden"><g transform="translate(-334 -142)"><g><path d="M1.66401e-05-6.875 270.711-6.87434 270.711 6.87566-1.66401e-05 6.875ZM270.711 0.000655224 256.961-20.6244 298.211 0.000721785 256.961 20.6256Z" fill="#000000" fill-rule="nonzero" fill-opacity="1" transform="matrix(1 0 0 -1 1446 1255)"/><path d="M1006.37 1394.5C1025.64 1394.5 1041.25 1332.04 1041.25 1255 1041.25 1177.96 1025.64 1115.5 1006.37 1115.5L1411.63 1115.5C1430.89 1115.5 1446.5 1177.96 1446.5 1255 1446.5 1332.04 1430.89 1394.5 1411.63 1394.5Z" fill="#558CD6" fill-rule="evenodd" fill-opacity="1"/><path d="M1006.37 1394.5C987.114 1394.5 971.5 1332.04 971.5 1255 971.5 1177.96 987.114 1115.5 1006.37 1115.5 1025.64 1115.5 1041.25 1177.96 1041.25 1255 1041.25 1332.04 1025.64 1394.5 1006.37 1394.5Z" fill="#99BAE6" fill-rule="evenodd" fill-opacity="1"/><path d="M1006.37 1115.5C1025.64 1115.5 1041.25 1177.96 1041.25 1255 1041.25 1332.04 1025.64 1394.5 1006.37 1394.5 987.114 1394.5 971.5 1332.04 971.5 1255 971.5 1177.96 987.114 1115.5 1006.37 1115.5L1411.63 1115.5C1430.89 1115.5 1446.5 1177.96 1446.5 1255 1446.5 1332.04 1430.89 1394.5 1411.63 1394.5L1006.37 1394.5" stroke="#406BA5" stroke-width="6.875" stroke-linecap="butt" stroke-linejoin="miter" stroke-miterlimit="8" stroke-opacity="1" fill="none" fill-rule="evenodd"/><text fill="#262626" fill-opacity="1" font-family="Aptos,Aptos_MSFontService,sans-serif" font-style="normal" font-variant="normal" font-weight="400" font-stretch="normal" font-size="101" text-anchor="start" direction="ltr" writing-mode="lr-tb" unicode-bidi="normal" text-decoration="none" transform="matrix(1 0 0 1 1118.71 1281)">CMP</text><path d="M1801.37 1394.5C1820.64 1394.5 1836.25 1332.04 1836.25 1255 1836.25 1177.96 1820.64 1115.5 1801.37 1115.5L2206.63 1115.5C2225.89 1115.5 2241.5 1177.96 2241.5 1255 2241.5 1332.04 2225.89 1394.5 2206.63 1394.5Z" fill="#FFCE29" fill-rule="evenodd" fill-opacity="1"/><path d="M1801.37 1394.5C1782.11 1394.5 1766.5 1332.04 1766.5 1255 1766.5 1177.96 1782.11 1115.5 1801.37 1115.5 1820.64 1115.5 1836.25 1177.96 1836.25 1255 1836.25 1332.04 1820.64 1394.5 1801.37 1394.5Z" fill="#FFE27F" fill-rule="evenodd" fill-opacity="1"/><path d="M1801.37 1115.5C1820.64 1115.5 1836.25 1177.96 1836.25 1255 1836.25 1332.04 1820.64 1394.5 1801.37 1394.5 1782.11 1394.5 1766.5 1332.04 1766.5 1255 1766.5 1177.96 1782.11 1115.5 1801.37 1115.5L2206.63 1115.5C2225.89 1115.5 2241.5 1177.96 2241.5 1255 2241.5 1332.04 2225.89 1394.5 2206.63 1394.5L1801.37 1394.5" stroke="#BF9A20" stroke-width="6.875" stroke-linecap="butt" stroke-linejoin="miter" stroke-miterlimit="8" stroke-opacity="1" fill="none" fill-rule="evenodd"/><text fill="#262626" fill-opacity="1" font-family="Aptos,Aptos_MSFontService,sans-serif" font-style="normal" font-variant="normal" font-weight="400" font-stretch="normal" font-size="101" text-anchor="start" direction="ltr" writing-mode="lr-tb" unicode-bidi="normal" text-decoration="none" transform="matrix(1 0 0 1 1934.93 1281)">SUB</text><path d="M2596.37 1394.5C2615.64 1394.5 2631.25 1332.04 2631.25 1255 2631.25 1177.96 2615.64 1115.5 2596.37 1115.5L3001.62 1115.5C3020.89 1115.5 3036.5 1177.96 3036.5 1255 3036.5 1332.04 3020.89 1394.5 3001.62 1394.5Z" fill="#FF5A52" fill-rule="evenodd" fill-opacity="1"/><path d="M2596.37 1394.5C2577.11 1394.5 2561.5 1332.04 2561.5 1255 2561.5 1177.96 2577.11 1115.5 2596.37 1115.5 2615.64 1115.5 2631.25 1177.96 2631.25 1255 2631.25 1332.04 2615.64 1394.5 2596.37 1394.5Z" fill="#FF9C97" fill-rule="evenodd" fill-opacity="1"/><path d="M2596.37 1115.5C2615.64 1115.5 2631.25 1177.96 2631.25 1255 2631.25 1332.04 2615.64 1394.5 2596.37 1394.5 2577.11 1394.5 2561.5 1332.04 2561.5 1255 2561.5 1177.96 2577.11 1115.5 2596.37 1115.5L3001.62 1115.5C3020.89 1115.5 3036.5 1177.96 3036.5 1255 3036.5 1332.04 3020.89 1394.5 3001.62 1394.5L2596.37 1394.5" stroke="#C5453F" stroke-width="6.875" stroke-linecap="butt" stroke-linejoin="miter" stroke-miterlimit="8" stroke-opacity="1" fill="none" fill-rule="evenodd"/><text fill="#262626" fill-opacity="1" font-family="Aptos,Aptos_MSFontService,sans-serif" font-style="normal" font-variant="normal" font-weight="400" font-stretch="normal" font-size="101" text-anchor="start" direction="ltr" writing-mode="lr-tb" unicode-bidi="normal" text-decoration="none" transform="matrix(1 0 0 1 2728.84 1281)">ADD</text><path d="M1.66401e-05-6.875 270.711-6.87434 270.711 6.87566-1.66401e-05 6.875ZM270.711 0.000655224 256.961-20.6244 298.211 0.000721785 256.961 20.6256Z" fill="#000000" fill-rule="nonzero" fill-opacity="1" transform="matrix(1 0 0 -1 2241 1249)"/><path d="M1800.37 657.5C1819.64 657.5 1835.25 595.044 1835.25 518 1835.25 440.956 1819.64 378.5 1800.37 378.5L2206.62 378.5C2225.89 378.5 2241.5 440.957 2241.5 518 2241.5 595.044 2225.89 657.501 2206.62 657.501Z" fill="#AEAEAE" fill-rule="evenodd" fill-opacity="1"/><path d="M1800.37 657.5C1781.11 657.5 1765.5 595.044 1765.5 518 1765.5 440.956 1781.11 378.5 1800.37 378.5 1819.64 378.5 1835.25 440.956 1835.25 518 1835.25 595.044 1819.64 657.5 1800.37 657.5Z" fill="#CECECE" fill-rule="evenodd" fill-opacity="1"/><path d="M1800.37 378.5C1819.64 378.5 1835.25 440.957 1835.25 518 1835.25 595.044 1819.64 657.501 1800.37 657.501 1781.11 657.501 1765.5 595.044 1765.5 518 1765.5 440.957 1781.11 378.5 1800.37 378.5L2206.62 378.5C2225.89 378.5 2241.5 440.957 2241.5 518 2241.5 595.044 2225.89 657.501 2206.62 657.501L1800.37 657.5" stroke="#747474" stroke-width="6.875" stroke-linecap="butt" stroke-linejoin="miter" stroke-miterlimit="8" stroke-opacity="1" fill="none" fill-rule="evenodd"/><path d="M2597.37 657.5C2616.64 657.5 2632.25 595.044 2632.25 518 2632.25 440.956 2616.64 378.5 2597.37 378.5L3002.62 378.501C3021.89 378.501 3037.5 440.957 3037.5 518.001 3037.5 595.044 3021.89 657.501 3002.62 657.501Z" fill="#AEAEAE" fill-rule="evenodd" fill-opacity="1"/><path d="M2597.37 657.5C2578.11 657.5 2562.5 595.044 2562.5 518 2562.5 440.956 2578.11 378.5 2597.37 378.5 2616.64 378.5 2632.25 440.956 2632.25 518 2632.25 595.044 2616.64 657.5 2597.37 657.5Z" fill="#CECECE" fill-rule="evenodd" fill-opacity="1"/><path d="M2597.37 378.501C2616.64 378.501 2632.25 440.957 2632.25 518.001 2632.25 595.044 2616.64 657.501 2597.37 657.501 2578.11 657.501 2562.5 595.044 2562.5 518.001 2562.5 440.957 2578.11 378.501 2597.37 378.501L3002.62 378.501C3021.89 378.501 3037.5 440.957 3037.5 518.001 3037.5 595.044 3021.89 657.501 3002.62 657.501L2597.37 657.5" stroke="#747474" stroke-width="6.875" stroke-linecap="butt" stroke-linejoin="miter" stroke-miterlimit="8" stroke-opacity="1" fill="none" fill-rule="evenodd"/><path d="M1005.37 657.5C1024.64 657.5 1040.25 595.044 1040.25 518 1040.25 440.956 1024.64 378.5 1005.37 378.5L1411.62 378.5C1430.89 378.5 1446.5 440.957 1446.5 518 1446.5 595.044 1430.89 657.501 1411.62 657.501Z" fill="#FF5A52" fill-rule="evenodd" fill-opacity="1"/><path d="M1005.37 657.5C986.114 657.5 970.5 595.044 970.5 518 970.5 440.956 986.114 378.5 1005.37 378.5 1024.64 378.5 1040.25 440.956 1040.25 518 1040.25 595.044 1024.64 657.5 1005.37 657.5Z" fill="#FF9C97" fill-rule="evenodd" fill-opacity="1"/><path d="M1005.37 378.5C1024.64 378.5 1040.25 440.957 1040.25 518 1040.25 595.044 1024.64 657.501 1005.37 657.501 986.114 657.501 970.5 595.044 970.5 518 970.5 440.957 986.114 378.5 1005.37 378.5L1411.62 378.5C1430.89 378.5 1446.5 440.957 1446.5 518 1446.5 595.044 1430.89 657.501 1411.62 657.501L1005.37 657.5" stroke="#C5453F" stroke-width="6.875" stroke-linecap="butt" stroke-linejoin="miter" stroke-miterlimit="8" stroke-opacity="1" fill="none" fill-rule="evenodd"/><text fill="#262626" fill-opacity="1" font-family="Aptos,Aptos_MSFontService,sans-serif" font-style="normal" font-variant="normal" font-weight="400" font-stretch="normal" font-size="101" text-anchor="start" direction="ltr" writing-mode="lr-tb" unicode-bidi="normal" text-decoration="none" transform="matrix(1 0 0 1 1138.13 544)">ADD</text><path d="M1.66401e-05-6.875 270.711-6.87434 270.711 6.87566-1.66401e-05 6.875ZM270.711 0.000655224 256.961-20.6244 298.211 0.000721785 256.961 20.6256Z" fill="#000000" fill-rule="nonzero" fill-opacity="1" transform="matrix(1 0 0 -1 1446 512.001)"/><path d="M1.66401e-05-6.875 270.711-6.87434 270.711 6.87566-1.66401e-05 6.875ZM270.711 0.000655224 256.961-20.6244 298.211 0.000721785 256.961 20.6256Z" fill="#000000" fill-rule="nonzero" fill-opacity="1" transform="matrix(1 0 0 -1 2241 512.001)"/><path d="M1005.25 1025.5C1024.44 1025.5 1040 963.268 1040 886.5 1040 809.732 1024.44 747.5 1005.25 747.5L1411.75 747.5C1430.94 747.5 1446.5 809.733 1446.5 886.501 1446.5 963.268 1430.94 1025.5 1411.75 1025.5Z" fill="#FFCE29" fill-rule="evenodd" fill-opacity="1"/><path d="M1005.25 1025.5C986.058 1025.5 970.5 963.268 970.5 886.5 970.5 809.732 986.058 747.5 1005.25 747.5 1024.44 747.5 1040 809.732 1040 886.5 1040 963.268 1024.44 1025.5 1005.25 1025.5Z" fill="#FFE27F" fill-rule="evenodd" fill-opacity="1"/><path d="M1005.25 747.5C1024.44 747.5 1040 809.733 1040 886.501 1040 963.268 1024.44 1025.5 1005.25 1025.5 986.058 1025.5 970.5 963.268 970.5 886.501 970.5 809.733 986.058 747.5 1005.25 747.5L1411.75 747.5C1430.94 747.5 1446.5 809.733 1446.5 886.501 1446.5 963.268 1430.94 1025.5 1411.75 1025.5L1005.25 1025.5" stroke="#BF9A20" stroke-width="6.875" stroke-linecap="butt" stroke-linejoin="miter" stroke-miterlimit="8" stroke-opacity="1" fill="none" fill-rule="evenodd"/><text fill="#262626" fill-opacity="1" font-family="Aptos,Aptos_MSFontService,sans-serif" font-style="normal" font-variant="normal" font-weight="400" font-stretch="normal" font-size="101" text-anchor="start" direction="ltr" writing-mode="lr-tb" unicode-bidi="normal" text-decoration="none" transform="matrix(1 0 0 1 1139.19 912)">SUB</text><path d="M1800.25 1025.5C1819.44 1025.5 1835 963.268 1835 886.5 1835 809.732 1819.44 747.5 1800.25 747.5L2206.75 747.5C2225.94 747.5 2241.5 809.733 2241.5 886.501 2241.5 963.268 2225.94 1025.5 2206.75 1025.5Z" fill="#FF5A52" fill-rule="evenodd" fill-opacity="1"/><path d="M1800.25 1025.5C1781.06 1025.5 1765.5 963.268 1765.5 886.5 1765.5 809.732 1781.06 747.5 1800.25 747.5 1819.44 747.5 1835 809.732 1835 886.5 1835 963.268 1819.44 1025.5 1800.25 1025.5Z" fill="#FF9C97" fill-rule="evenodd" fill-opacity="1"/><path d="M1800.25 747.5C1819.44 747.5 1835 809.733 1835 886.501 1835 963.268 1819.44 1025.5 1800.25 1025.5 1781.06 1025.5 1765.5 963.268 1765.5 886.501 1765.5 809.733 1781.06 747.5 1800.25 747.5L2206.75 747.5C2225.94 747.5 2241.5 809.733 2241.5 886.501 2241.5 963.268 2225.94 1025.5 2206.75 1025.5L1800.25 1025.5" stroke="#C5453F" stroke-width="6.875" stroke-linecap="butt" stroke-linejoin="miter" stroke-miterlimit="8" stroke-opacity="1" fill="none" fill-rule="evenodd"/><text fill="#262626" fill-opacity="1" font-family="Aptos,Aptos_MSFontService,sans-serif" font-style="normal" font-variant="normal" font-weight="400" font-stretch="normal" font-size="101" text-anchor="start" direction="ltr" writing-mode="lr-tb" unicode-bidi="normal" text-decoration="none" transform="matrix(1 0 0 1 1933.11 912)">ADD</text><path d="M1.66401e-05-6.875 270.711-6.87434 270.711 6.87566-1.66401e-05 6.875ZM270.711 0.000655224 256.961-20.6244 298.211 0.000721785 256.961 20.6256Z" fill="#000000" fill-rule="nonzero" fill-opacity="1" transform="matrix(1 0 0 -1 1446 881.001)"/><path d="M2597.25 1025.5C2616.44 1025.5 2632 963.268 2632 886.5 2632 809.733 2616.44 747.5 2597.25 747.5L3002.75 747.5C3021.94 747.5 3037.5 809.733 3037.5 886.5 3037.5 963.268 3021.94 1025.5 3002.75 1025.5Z" fill="#AEAEAE" fill-rule="evenodd" fill-opacity="1"/><path d="M2597.25 1025.5C2578.06 1025.5 2562.5 963.268 2562.5 886.5 2562.5 809.733 2578.06 747.5 2597.25 747.5 2616.44 747.5 2632 809.733 2632 886.5 2632 963.268 2616.44 1025.5 2597.25 1025.5Z" fill="#CECECE" fill-rule="evenodd" fill-opacity="1"/><path d="M2597.25 747.5C2616.44 747.5 2632 809.733 2632 886.5 2632 963.268 2616.44 1025.5 2597.25 1025.5 2578.06 1025.5 2562.5 963.268 2562.5 886.5 2562.5 809.733 2578.06 747.5 2597.25 747.5L3002.75 747.5C3021.94 747.5 3037.5 809.733 3037.5 886.5 3037.5 963.268 3021.94 1025.5 3002.75 1025.5L2597.25 1025.5" stroke="#747474" stroke-width="6.875" stroke-linecap="butt" stroke-linejoin="miter" stroke-miterlimit="8" stroke-opacity="1" fill="none" fill-rule="evenodd"/><path d="M1.66401e-05-6.875 270.711-6.87434 270.711 6.87566-1.66401e-05 6.875ZM270.711 0.000655224 256.961-20.6244 298.211 0.000721785 256.961 20.6256Z" fill="#000000" fill-rule="nonzero" fill-opacity="1" transform="matrix(1 0 0 -1 2241 881.001)"/><path d="M1586.5 185.5 1586.5 1547.89" stroke="#000000" stroke-width="9.16667" stroke-linecap="butt" stroke-linejoin="miter" stroke-miterlimit="8" stroke-dasharray="36.6667 27.5" stroke-opacity="1" fill="none" fill-rule="evenodd"/><path d="M2389.5 205.5 2389.5 1567.89" stroke="#000000" stroke-width="9.16667" stroke-linecap="butt" stroke-linejoin="miter" stroke-miterlimit="8" stroke-dasharray="36.6667 27.5" stroke-opacity="1" fill="none" fill-rule="evenodd"/><text fill="#262626" fill-opacity="1" font-family="Aptos,Aptos_MSFontService,sans-serif" font-style="normal" font-variant="normal" font-weight="400" font-stretch="normal" font-size="101" text-anchor="start" direction="ltr" writing-mode="lr-tb" unicode-bidi="normal" text-decoration="none" transform="matrix(1 0 0 1 1100.11 268)">Fetch</text><text fill="#262626" fill-opacity="1" font-family="Aptos,Aptos_MSFontService,sans-serif" font-style="normal" font-variant="normal" font-weight="400" font-stretch="normal" font-size="101" text-anchor="start" direction="ltr" writing-mode="lr-tb" unicode-bidi="normal" text-decoration="none" transform="matrix(1 0 0 1 1840.25 268)">Decode</text><text fill="#262626" fill-opacity="1" font-family="Aptos,Aptos_MSFontService,sans-serif" font-style="normal" font-variant="normal" font-weight="400" font-stretch="normal" font-size="101" text-anchor="start" direction="ltr" writing-mode="lr-tb" unicode-bidi="normal" text-decoration="none" transform="matrix(1 0 0 1 2625.29 268)">Execute</text><path d="M491.24 159.5 491.24 1481.73 471.761 1481.73 471.76 159.5ZM481.5 1481.73 510.719 1462.25 481.5 1520.69 452.282 1462.25Z" fill="#000000" fill-rule="nonzero" fill-opacity="1"/><text fill="#000000" fill-opacity="1" font-family="Aptos,Aptos_MSFontService,sans-serif" font-style="normal" font-variant="normal" font-weight="400" font-stretch="normal" font-size="83" text-anchor="start" direction="ltr" writing-mode="lr-tb" unicode-bidi="normal" text-decoration="none" transform="matrix(-1.83697e-16 -1 1 -1.83697e-16 440.578 907)">Zeit</text><text fill="#262626" fill-opacity="1" font-family="Aptos,Aptos_MSFontService,sans-serif" font-style="normal" font-variant="normal" font-weight="400" font-stretch="normal" font-size="101" text-anchor="start" direction="ltr" writing-mode="lr-tb" unicode-bidi="normal" text-decoration="none" transform="matrix(1 0 0 1 583.419 549)">Zyklus 1</text><text fill="#262626" fill-opacity="1" font-family="Aptos,Aptos_MSFontService,sans-serif" font-style="normal" font-variant="normal" font-weight="400" font-stretch="normal" font-size="101" text-anchor="start" direction="ltr" writing-mode="lr-tb" unicode-bidi="normal" text-decoration="none" transform="matrix(1 0 0 1 583.419 918)">Zyklus 2</text><text fill="#262626" fill-opacity="1" font-family="Aptos,Aptos_MSFontService,sans-serif" font-style="normal" font-variant="normal" font-weight="400" font-stretch="normal" font-size="101" text-anchor="start" direction="ltr" writing-mode="lr-tb" unicode-bidi="normal" text-decoration="none" transform="matrix(1 0 0 1 583.419 1286)">Zyklus 3</text></g></g></svg>