<?xml version="1.0" encoding="UTF-8" standalone="no"?><!DOCTYPE svg PUBLIC "-//W3C//DTD SVG 1.1//EN" "http://www.w3.org/Graphics/SVG/1.1/DTD/svg11.dtd"><svg width="100%" height="100%" viewBox="0 0 2134 2134" version="1.1" xmlns="http://www.w3.org/2000/svg" xmlns:xlink="http://www.w3.org/1999/xlink" xml:space="preserve" xmlns:serif="http://www.serif.com/" style="fill-rule:evenodd;clip-rule:evenodd;stroke-linejoin:round;stroke-miterlimit:2;"><g><path d="M711.114,1131.52l664.011,-474.099c11.152,-7.961 26.88,-5.337 34.843,5.815l62.566,87.628c7.962,11.153 5.337,26.881 -5.815,34.844l-652.582,466.017l-103.023,-120.205Z" style="fill:#4a80aa;fill-rule:nonzero;"/><path d="M958.709,1238l310.02,-221.351c11.936,-8.523 14.745,-25.357 6.224,-37.294l-38.767,-54.295c-8.522,-11.936 -25.356,-14.746 -37.293,-6.224l-310.02,221.351c-11.936,8.522 -14.746,25.357 -6.224,37.293l38.766,54.296c8.58,12.016 25.278,14.804 37.294,6.224Z" style="fill:#365e7d;fill-rule:nonzero;"/><path d="M1424.58,683.694l-677.508,484.627l-35.952,-36.784l663.999,-474.121c11.233,-7.995 26.822,-5.416 34.846,5.817l14.615,20.461Z" style="fill:#407093;fill-rule:nonzero;"/><path d="M844.627,1312.33l-278.77,210.539c-20.604,15.561 -30.175,43.157 -25.447,73.562l22.352,144.17c4.442,28.657 -15.704,49.232 -42.383,43.214l-44.274,-10.001c-16.105,-3.639 -30.835,2.321 -38.4,15.503l-155.863,272.294c-9.8,17.108 -34.932,14.529 -48.888,-5.015l-170.62,-238.966c-10.861,-15.217 -10.173,-34.502 1.576,-43.587l284.501,-220.339c17.395,-13.469 30.319,-31.952 40.177,-52.757c35.161,-74.335 81.785,-139.586 129.155,-194.09c103.278,-118.867 210.224,-186.726 210.224,-186.726l58.344,81.7l61.955,86.772c5.374,7.544 3.748,18.14 -3.639,23.727Z" style="fill:#d29b6e;fill-rule:nonzero;"/><path d="M757.311,1161.2c-40.52,31.751 -97.604,81.212 -153.599,145.661c-47.369,54.504 -93.993,119.755 -129.155,194.09c-9.858,20.805 -22.782,39.288 -40.176,52.757l-284.502,220.339c-11.749,9.085 -12.437,28.37 -1.576,43.587l151.622,212.373l-18.083,31.608c-9.8,17.108 -34.932,14.529 -48.888,-5.015l-170.62,-238.966c-10.861,-15.217 -10.173,-34.502 1.576,-43.587l284.501,-220.339c17.395,-13.469 30.319,-31.952 40.177,-52.757c35.161,-74.335 81.785,-139.586 129.155,-194.09c103.278,-118.867 210.224,-186.726 210.224,-186.726l29.344,41.065Z" style="fill:#c48d66;fill-rule:nonzero;"/><path d="M786.311,1201.83l-202.343,144.457c-5.216,3.725 -11.234,5.617 -17.223,5.731c-9.915,0.287 -19.801,-4.241 -25.991,-12.924l-23.011,-32.238c103.278,-118.867 210.224,-186.726 210.224,-186.726l29.344,41.065l29,40.635Z" style="fill:#365e7d;fill-rule:nonzero;"/><path d="M757.311,1161.2c-40.52,31.751 -97.604,81.212 -153.599,145.661c-12.437,14.328 -24.816,29.373 -36.967,45.162c-9.915,0.287 -19.801,-4.241 -25.991,-12.924l-23.011,-32.238c103.278,-118.867 210.224,-186.726 210.224,-186.726l29.344,41.065Z" style="fill:#2b4d66;fill-rule:nonzero;"/><path d="M1490.04,738.373l-62.586,-87.634c-14.87,-20.822 -43.942,-25.676 -64.826,-10.812l-108.351,77.372c-9.531,6.806 -11.806,20.45 -5,29.981c6.806,9.531 20.449,11.803 29.98,5l108.322,-77.352c1.561,-1.119 3.766,-0.762 4.894,0.794l62.566,87.602c1.114,1.564 0.755,3.765 -0.797,4.895l-201.148,143.609c-7.474,-10.055 -18.335,-16.741 -30.729,-18.81c-12.613,-2.138 -25.571,0.86 -35.963,8.322l-310.021,221.351c-21.386,15.271 -26.518,44.908 -11.726,66.489l-40.383,28.831l-66.623,-93.3l439.992,-314.178c9.595,-6.852 11.852,-20.385 5,-29.98c-4.03,-5.645 -10.553,-9.004 -17.49,-9.004c-4.478,0 -8.846,1.4 -12.49,4.003l-470.964,336.301c-53.201,36.766 -234.542,172.764 -332.533,379.894c-9.419,19.881 -20.512,34.588 -33.912,44.964l-284.49,220.332c-20.985,16.228 -23.584,48.323 -5.92,73.079l170.623,238.967c11.033,15.451 29.402,26.304 48.734,25.344c15.448,-0.774 28.676,-8.841 36.299,-22.143l155.851,-272.274c3.814,-6.643 11.047,-6.133 15.024,-5.236l44.278,10.001c19.185,4.328 37.861,-0.366 51.255,-12.878c14.19,-13.253 20.42,-33.153 17.099,-54.596l-6.703,-43.234l130.648,-95.251c19.251,-14.039 27.163,-39.526 19.257,-61.933l-30.192,-86.127l39.583,-29.894c5.374,-4.059 8.54,-10.417 8.54,-17.151c-0,-4.674 -1.525,-9.223 -4.342,-12.953c-4.059,-5.375 -10.417,-8.542 -17.152,-8.542c-4.674,0 -9.222,1.525 -12.952,4.341l-157.782,119.154c-27.095,20.463 -39.704,55.605 -33.732,94.007l22.352,144.171c1.109,7.158 -0.335,13.205 -3.963,16.598c-3.685,3.439 -8.803,3.175 -12.445,2.358l-44.269,-9.998c-25.269,-5.697 -49.518,4.404 -61.792,25.788l-155.86,272.288c-0.077,0.15 -0.175,0.288 -0.292,0.41c-1.043,0.639 -7.359,-0.092 -12.457,-7.227l-170.618,-238.961c-4.9,-6.866 -3.98,-13.168 -2.759,-14.11l284.501,-220.343c18.607,-14.406 34.233,-34.78 46.447,-60.56c29.782,-62.955 68.251,-119.403 108.373,-168.165l6.86,9.609c8.059,11.35 20.338,19.01 34.075,21.257c13.725,2.264 27.803,-0.994 39.137,-9.058l184.834,-131.975l47.048,65.887l-37.588,28.373c-5.245,4.069 -8.319,10.346 -8.319,16.983c0,11.792 9.703,21.495 21.495,21.495c4.575,0 9.033,-1.46 12.72,-4.167l40.942,-30.906c16.699,-12.509 20.358,-36.427 8.161,-53.356l-16.506,-23.117l40.343,-28.803l14.331,20.071c15.245,21.355 45.896,26.49 67.274,11.228l0.003,-0.003l310.02,-221.351c21.638,-15.452 26.676,-45.63 11.222,-67.277l-14.334,-20.077l201.134,-143.603c20.787,-14.887 25.639,-43.951 10.792,-64.81Zm-911.23,801.648l82.183,-62.064l25.659,73.192c1.631,4.718 -0.011,9.983 -4.034,12.938l-112.732,82.19l-8.239,-53.15c-3.499,-22.495 2.917,-42.348 17.163,-53.106Zm-7.325,-211.224c-2.054,1.466 -4.61,2.055 -7.098,1.636c-2.479,-0.404 -4.696,-1.785 -6.153,-3.831l-12.973,-18.168c72.794,-80.912 145.527,-136.101 177.438,-158.694l33.62,47.083l-184.834,131.974Zm684.755,-329.641l-310.017,221.348c-2.343,1.67 -5.644,1.119 -7.319,-1.22l-38.766,-54.296c-1.668,-2.342 -1.116,-5.641 1.223,-7.313l310.02,-221.351c1.132,-0.807 2.539,-1.132 3.909,-0.903c0.977,0.163 2.361,0.662 3.405,2.126l38.76,54.29c1.671,2.342 1.123,5.642 -1.215,7.319Z" style="fill-rule:nonzero;"/><path d="M1766.09,635.161l-11.543,4.395c-2.285,0.901 -4.714,1.382 -7.17,1.42c-10.377,-0.108 -18.857,-8.669 -18.869,-19.046c0,-8.59 5.55,-14.961 12.587,-17.758l0.133,-0.067l38.802,-14.65c2.098,-0.772 4.316,-1.167 6.551,-1.167c10.299,0 18.815,8.383 18.977,18.681l-0,98.604l10.544,-0c10.389,-0 19.246,8.701 19.246,19.046c-0.024,10.583 -8.663,19.313 -19.246,19.445l-67.948,0c-10.583,-0.132 -19.223,-8.862 -19.246,-19.445c-0,-10.345 8.835,-19.046 19.246,-19.046l17.914,-0l0.022,-70.412Z" style="fill-rule:nonzero;"/><path d="M1989.54,340.316c0,32.409 -28.391,51.011 -53.808,51.011c-25.417,0 -53.808,-18.602 -53.808,-51.011l-0,-56.339c-0,-32.409 28.413,-51.011 53.808,-51.011c25.395,0 53.808,18.602 53.808,51.011l0,56.339Zm-68.126,-1.998l0,-52.343c0,-8.657 6.149,-14.318 14.518,-14.318c7.88,0 14.118,5.572 14.118,14.318l-0,52.343c-0.115,7.736 -6.385,14.094 -14.118,14.318c-7.894,0.013 -14.421,-6.425 -14.518,-14.318Z"/><path d="M1925.96,175.542c0,32.409 -28.391,51.011 -53.808,51.011c-25.417,-0 -53.808,-18.602 -53.808,-51.011l-0,-56.339c-0,-32.409 28.413,-51.011 53.808,-51.011c25.395,-0 53.808,18.602 53.808,51.011l0,56.339Zm-68.126,-1.998l0,-52.343c0,-8.658 6.149,-14.318 14.518,-14.318c7.88,-0 14.118,5.572 14.118,14.318l-0,52.343c-0.115,7.735 -6.385,14.094 -14.118,14.317c-7.894,0.013 -14.421,-6.424 -14.518,-14.317Z"/><path d="M1747.83,255.484l-11.543,4.373c-2.284,0.908 -4.713,1.397 -7.17,1.443c-10.368,-0.121 -18.835,-8.678 -18.846,-19.046c-0,-8.591 5.549,-14.962 12.586,-17.759l0.111,-0.066l38.824,-14.651c2.105,-0.777 4.33,-1.175 6.573,-1.175c10.302,0 18.82,8.388 18.977,18.689l0,98.604l10.522,0c10.389,0 19.246,8.702 19.246,19.046c-0.023,10.583 -8.663,19.313 -19.246,19.445l-67.926,0c-10.591,-0.12 -19.244,-8.853 -19.268,-19.445c0,-10.344 8.857,-19.046 19.268,-19.046l17.914,0l-0.022,-70.412Z" style="fill-rule:nonzero;"/><path d="M1637.74,730.388l-11.543,4.373c-2.284,0.909 -4.713,1.397 -7.17,1.443c-10.368,-0.121 -18.835,-8.677 -18.846,-19.046c-0,-8.591 5.549,-14.961 12.586,-17.758l0.111,-0.067l38.825,-14.651c2.104,-0.776 4.329,-1.174 6.572,-1.174c10.302,-0 18.82,8.388 18.978,18.689l-0,98.603l10.521,0c10.389,0 19.246,8.702 19.246,19.046c-0.023,10.584 -8.663,19.313 -19.246,19.446l-67.926,-0c-10.591,-0.121 -19.244,-8.854 -19.268,-19.446c0,-10.344 8.857,-19.046 19.268,-19.046l17.914,0l-0.022,-70.412Z" style="fill-rule:nonzero;"/><path d="M1447.91,474.1l-11.543,4.373c-2.283,0.908 -4.712,1.397 -7.17,1.443c-10.368,-0.121 -18.835,-8.677 -18.846,-19.046c0,-8.591 5.55,-14.962 12.586,-17.759l0.111,-0.066l38.825,-14.651c2.104,-0.777 4.33,-1.174 6.573,-1.174c10.302,-0 18.819,8.388 18.977,18.688l-0,98.604l10.522,0c10.388,0 19.245,8.702 19.245,19.046c-0.023,10.584 -8.663,19.313 -19.245,19.446l-67.926,-0c-10.592,-0.121 -19.245,-8.854 -19.268,-19.446c-0,-10.344 8.857,-19.046 19.268,-19.046l17.913,0l-0.022,-70.412Z" style="fill-rule:nonzero;"/><path d="M2006.2,585.832c-0,32.409 -28.414,51.011 -53.809,51.011c-25.394,-0 -53.808,-18.602 -53.808,-51.011l0,-56.339c0,-32.409 28.392,-51.011 53.808,-51.011c25.417,-0 53.809,18.602 53.809,51.011l-0,56.339Zm-68.149,-1.998l0,-52.343c0,-8.658 6.172,-14.318 14.54,-14.318c7.881,-0 14.118,5.572 14.118,14.318l0,52.343c-0.115,7.735 -6.385,14.094 -14.118,14.318c-7.893,0.012 -14.421,-6.425 -14.517,-14.318l-0.023,-0Z"/><path d="M1627.81,353.721l-11.543,4.395c-2.285,0.901 -4.714,1.382 -7.17,1.421c-10.368,-0.121 -18.834,-8.678 -18.846,-19.046c0,-8.591 5.55,-14.962 12.587,-17.759l0.111,-0.066l38.802,-14.651c2.104,-0.777 4.33,-1.175 6.573,-1.175c10.302,0 18.819,8.388 18.977,18.689l-0,98.604l10.522,-0c10.411,-0 19.245,8.702 19.245,19.046c-0.023,10.583 -8.663,19.313 -19.245,19.445l-67.926,0c-10.583,-0.132 -19.223,-8.862 -19.246,-19.445c-0,-10.344 8.857,-19.046 19.246,-19.046l17.913,-0l0,-70.412Z" style="fill-rule:nonzero;"/><path d="M1653.88,601.662c0,32.409 -28.391,51.011 -53.808,51.011c-25.417,-0 -53.808,-18.602 -53.808,-51.011l-0,-56.339c-0,-32.409 28.413,-51.011 53.808,-51.011c25.395,-0 53.808,18.602 53.808,51.011l0,56.339Zm-68.126,-1.998l0,-52.343c0,-8.657 6.171,-14.318 14.518,-14.318c7.88,0 14.118,5.572 14.118,14.318l-0,52.343c-0.115,7.735 -6.385,14.094 -14.118,14.318c-7.894,0.012 -14.421,-6.425 -14.518,-14.318Z"/><path d="M1831.07,507.558c-0,32.409 -28.392,51.011 -53.809,51.011c-25.416,0 -53.808,-18.602 -53.808,-51.011l0,-56.339c0,-32.409 28.414,-51.011 53.808,-51.011c25.395,0 53.809,18.602 53.809,51.011l-0,56.339Zm-68.126,-1.998l-0,-52.343c-0,-8.657 6.171,-14.318 14.517,-14.318c7.88,0 14.118,5.572 14.118,14.318l0,52.343c-0.115,7.736 -6.385,14.094 -14.118,14.318c-7.893,0.013 -14.421,-6.425 -14.517,-14.318Z"/></g></svg>