<svg width="4148" height="2355" xmlns="http://www.w3.org/2000/svg" xmlns:xlink="http://www.w3.org/1999/xlink" xml:space="preserve" overflow="hidden"><g transform="translate(-123 -32)"><g><rect x="3560" y="1674" width="711" height="711" fill="#F2AA84" fill-opacity="1"/><rect x="124" y="1674" width="712" height="711" fill="#F2AA84" fill-opacity="1"/><rect x="3550" y="148" width="712" height="712" fill="#92D050" fill-opacity="1"/><rect x="128" y="148" width="712" height="712" fill="#92D050" fill-opacity="1"/><path d="M1651.93 1406 1012.07 1406C1008.74 1406 1006 1403.26 1006 1399.92L1006 1286 1658 1286 1658 1399.92C1658 1403.26 1655.26 1406 1651.93 1406Z" fill="#6E6B87" fill-rule="evenodd" fill-opacity="1"/><path d="M1651.87 1406 1612 1406 1612 1286 1658 1286 1658 1399.92C1658 1403.26 1655.23 1406 1651.87 1406Z" fill="#625F78" fill-rule="evenodd" fill-opacity="1"/><path d="M1658 1189 1006 1189 1006 1075.08C1006 1071.74 1008.74 1069 1012.07 1069L1651.93 1069C1655.26 1069 1658 1071.74 1658 1075.08L1658 1189Z" fill="#EC5569" fill-rule="evenodd" fill-opacity="1"/><path d="M1658 1189 1612 1189 1612 1069 1651.87 1069C1655.23 1069 1658 1071.74 1658 1075.08L1658 1189Z" fill="#BD2C30" fill-rule="evenodd" fill-opacity="1"/><path d="M1702.93 1360 961.069 1360C957.739 1360 955 1357.27 955 1353.95L955 1121.05C955 1117.73 957.739 1115 961.069 1115L1702.93 1115C1706.26 1115 1709 1117.73 1709 1121.05L1709 1353.95C1709 1357.27 1706.26 1360 1702.93 1360Z" fill="#CBDAE0" fill-rule="evenodd" fill-opacity="1"/><path d="M1702.87 1360 1663 1360 1663 1115 1702.87 1115C1706.23 1115 1709 1117.73 1709 1121.05L1709 1353.95C1709 1357.27 1706.23 1360 1702.87 1360Z" fill="#A8B5BA" fill-rule="evenodd" fill-opacity="1"/><path d="M1382 1194.88 1382 1252.81C1382 1256.03 1379.35 1258.69 1376.12 1258.69L1367.8 1258.69C1364.57 1258.69 1361.92 1261.35 1361.92 1264.57L1361.92 1280.11C1361.92 1283.34 1359.26 1286 1356.04 1286L1304.96 1286C1301.74 1286 1299.08 1283.34 1299.08 1280.11L1299.08 1264.57C1299.08 1261.35 1296.43 1258.69 1293.2 1258.69L1284.88 1258.69C1281.66 1258.69 1279 1256.03 1279 1252.81L1279 1194.88C1279 1191.66 1281.66 1189 1284.88 1189L1376.12 1189C1379.35 1189 1382 1191.66 1382 1194.88Z" fill="#E97132" fill-rule="evenodd" fill-opacity="1"/><path d="M1241 1194.88 1241 1252.81C1241 1256.03 1238.35 1258.69 1235.12 1258.69L1226.8 1258.69C1223.57 1258.69 1220.92 1261.35 1220.92 1264.57L1220.92 1280.11C1220.92 1283.34 1218.26 1286 1215.04 1286L1163.96 1286C1160.74 1286 1158.08 1283.34 1158.08 1280.11L1158.08 1264.57C1158.08 1261.35 1155.43 1258.69 1152.2 1258.69L1143.88 1258.69C1140.66 1258.69 1138 1256.03 1138 1252.81L1138 1194.88C1138 1191.66 1140.66 1189 1143.88 1189L1235.12 1189C1238.35 1189 1241 1191.66 1241 1194.88Z" fill="#4EA72E" fill-rule="evenodd" fill-opacity="1"/><path d="M1523 1194.88 1523 1252.81C1523 1256.03 1520.32 1258.69 1517.06 1258.69L1508.66 1258.69C1505.41 1258.69 1502.73 1261.35 1502.73 1264.57L1502.73 1280.11C1502.73 1283.34 1500.04 1286 1496.79 1286L1445.21 1286C1441.96 1286 1439.27 1283.34 1439.27 1280.11L1439.27 1264.57C1439.27 1261.35 1436.59 1258.69 1433.34 1258.69L1424.94 1258.69C1421.68 1258.69 1419 1256.03 1419 1252.81L1419 1194.88C1419 1191.66 1421.68 1189 1424.94 1189L1517.06 1189C1520.32 1189 1523 1191.66 1523 1194.88Z" fill="#444B66" fill-rule="evenodd" fill-opacity="1"/><path d="M1663 1194.88 1663 1252.81C1663 1256.03 1660.35 1258.69 1657.12 1258.69L1648.8 1258.69C1645.57 1258.69 1642.92 1261.35 1642.92 1264.57L1642.92 1280.11C1642.92 1283.34 1640.26 1286 1637.04 1286L1585.96 1286C1582.73 1286 1580.08 1283.34 1580.08 1280.11L1580.08 1264.57C1580.08 1261.35 1577.43 1258.69 1574.2 1258.69L1565.88 1258.69C1562.65 1258.69 1560 1256.03 1560 1252.81L1560 1194.88C1560 1191.66 1562.65 1189 1565.88 1189L1657.12 1189C1660.35 1189 1663 1191.66 1663 1194.88Z" fill="#444B66" fill-rule="evenodd" fill-opacity="1"/><path d="M1091.96 1295 1006.04 1295C999.986 1295 995 1290 995 1283.94 995 1277.87 999.986 1272.87 1006.04 1272.87L1091.96 1272.87C1098.01 1272.87 1103 1277.87 1103 1283.94 1103 1290 1098.01 1295 1091.96 1295ZM1091.96 1264.04 1006.04 1264.04C999.986 1264.04 995 1259.05 995 1252.98 995 1246.91 999.986 1241.92 1006.04 1241.92L1091.96 1241.92C1098.01 1241.92 1103 1246.91 1103 1252.98 1103 1259.05 1098.01 1264.04 1091.96 1264.04ZM1091.96 1233.09 1006.04 1233.09C999.986 1233.09 995 1228.09 995 1222.02 995 1215.95 999.986 1210.96 1006.04 1210.96L1091.96 1210.96C1098.01 1210.96 1103 1215.95 1103 1222.02 1103 1228.09 1098.01 1233.09 1091.96 1233.09ZM1091.96 1202.13 1006.04 1202.13C999.986 1202.13 995 1197.13 995 1191.06 995 1184.99 999.986 1180 1006.04 1180L1091.96 1180C1098.01 1180 1103 1184.99 1103 1191.06 1103 1197.13 1098.01 1202.13 1091.96 1202.13Z" fill="#444B66" fill-rule="evenodd" fill-opacity="1"/><path d="M786 591.514 786 301.706C786 274.806 764.236 253 737.389 253L230.611 253C203.764 253 182 274.806 182 301.706L182 591.514 495.457 611Z" fill="#EDFBFF" fill-rule="evenodd" fill-opacity="1"/><path d="M739.718 301.706 739.718 611 786 611 786 301.706C786 274.806 764.189 253 737.282 253L691 253C717.906 253 739.718 274.806 739.718 301.706Z" fill="#D6F6FD" fill-rule="evenodd" fill-opacity="1"/><path d="M585 762 383 762 407.376 686 560.624 686Z" fill="#678D98" fill-rule="evenodd" fill-opacity="1"/><path d="M182 592 182 641.615C182 668.337 203.764 690 230.611 690L737.389 690C764.236 690 786 668.337 786 641.615L786 592Z" fill="#A8D3D8" fill-rule="evenodd" fill-opacity="1"/><path d="M739.802 592 739.802 598.068C739.802 624.79 718.029 646.453 691.171 646.453L184.193 646.453C183.457 646.453 182.727 646.429 182 646.398 184.414 670.874 205.157 690 230.392 690L737.37 690C764.228 690 786 668.337 786 641.615L786 592.001 739.802 592.001Z" fill="#8EBAC5" fill-rule="evenodd" fill-opacity="1"/><path d="M491.872 650.248 476.128 650.248C471.076 650.248 466.981 646.163 466.981 641.124 466.981 636.085 471.076 632 476.128 632L491.872 632C496.924 632 501.019 636.085 501.019 641.124 501.019 646.163 496.924 650.248 491.872 650.248ZM611.854 776 356.146 776C351.095 776 347 771.915 347 766.876 347 761.837 351.095 757.752 356.146 757.752L611.854 757.752C616.905 757.752 621 761.837 621 766.876 621 771.915 616.905 776 611.854 776Z" fill="#537983" fill-rule="evenodd" fill-opacity="1"/><path d="M786 2123.51 786 1833.71C786 1806.81 764.236 1785 737.389 1785L230.611 1785C203.764 1785 182 1806.81 182 1833.71L182 2123.51 495.457 2143Z" fill="#EDFBFF" fill-rule="evenodd" fill-opacity="1"/><path d="M739.718 1833.71 739.718 2143 786 2143 786 1833.71C786 1806.81 764.189 1785 737.282 1785L691 1785C717.906 1785 739.718 1806.81 739.718 1833.71Z" fill="#D6F6FD" fill-rule="evenodd" fill-opacity="1"/><path d="M585 2293 383 2293 407.376 2217 560.624 2217Z" fill="#678D98" fill-rule="evenodd" fill-opacity="1"/><path d="M182 2123 182 2173.12C182 2200.12 203.764 2222 230.611 2222L737.389 2222C764.236 2222 786 2200.12 786 2173.12L786 2123Z" fill="#A8D3D8" fill-rule="evenodd" fill-opacity="1"/><path d="M739.802 2123 739.802 2129.13C739.802 2156.12 718.029 2178.01 691.171 2178.01L184.193 2178.01C183.457 2178.01 182.727 2177.98 182 2177.95 184.414 2202.68 205.157 2222 230.392 2222L737.37 2222C764.228 2222 786 2200.12 786 2173.12L786 2123 739.802 2123Z" fill="#8EBAC5" fill-rule="evenodd" fill-opacity="1"/><path d="M491.872 2181.25 476.128 2181.25C471.076 2181.25 466.981 2177.16 466.981 2172.12 466.981 2167.08 471.076 2163 476.128 2163L491.872 2163C496.924 2163 501.019 2167.08 501.019 2172.12 501.019 2177.16 496.924 2181.25 491.872 2181.25ZM611.854 2307 356.146 2307C351.095 2307 347 2302.92 347 2297.88 347 2292.84 351.095 2288.75 356.146 2288.75L611.854 2288.75C616.905 2288.75 621 2292.84 621 2297.88 621 2302.92 616.905 2307 611.854 2307Z" fill="#537983" fill-rule="evenodd" fill-opacity="1"/><path d="M4218 591.514 4218 301.706C4218 274.806 4196.2 253 4169.31 253L3661.69 253C3634.8 253 3613 274.806 3613 301.706L3613 591.514 3926.98 611Z" fill="#EDFBFF" fill-rule="evenodd" fill-opacity="1"/><path d="M4171.72 301.706 4171.72 611 4218 611 4218 301.706C4218 274.806 4196.19 253 4169.28 253L4123 253C4149.91 253 4171.72 274.806 4171.72 301.706Z" fill="#D6F6FD" fill-rule="evenodd" fill-opacity="1"/><path d="M4017 762 3815 762 3839.38 686 3992.62 686Z" fill="#678D98" fill-rule="evenodd" fill-opacity="1"/><path d="M3613 592 3613 641.615C3613 668.337 3634.8 690 3661.69 690L4169.31 690C4196.2 690 4218 668.337 4218 641.615L4218 592Z" fill="#A8D3D8" fill-rule="evenodd" fill-opacity="1"/><path d="M4171.8 592 4171.8 598.068C4171.8 624.79 4150.03 646.453 4123.17 646.453L3616.19 646.453C3615.46 646.453 3614.73 646.429 3614 646.398 3616.41 670.874 3637.16 690 3662.39 690L4169.37 690C4196.23 690 4218 668.337 4218 641.615L4218 592.001 4171.8 592.001Z" fill="#8EBAC5" fill-rule="evenodd" fill-opacity="1"/><path d="M3923.34 650.248 3907.66 650.248C3902.62 650.248 3898.54 646.163 3898.54 641.124 3898.54 636.085 3902.62 632 3907.66 632L3923.34 632C3928.38 632 3932.46 636.085 3932.46 641.124 3932.46 646.163 3928.38 650.248 3923.34 650.248ZM4042.89 776 3788.11 776C3783.08 776 3779 771.915 3779 766.876 3779 761.837 3783.08 757.752 3788.11 757.752L4042.89 757.752C4047.92 757.752 4052 761.837 4052 766.876 4052 771.915 4047.92 776 4042.89 776Z" fill="#537983" fill-rule="evenodd" fill-opacity="1"/><path d="M4218 2123.51 4218 1833.71C4218 1806.81 4196.2 1785 4169.31 1785L3661.69 1785C3634.8 1785 3613 1806.81 3613 1833.71L3613 2123.51 3926.98 2143Z" fill="#EDFBFF" fill-rule="evenodd" fill-opacity="1"/><path d="M4171.72 1833.71 4171.72 2143 4218 2143 4218 1833.71C4218 1806.81 4196.19 1785 4169.28 1785L4123 1785C4149.91 1785 4171.72 1806.81 4171.72 1833.71Z" fill="#D6F6FD" fill-rule="evenodd" fill-opacity="1"/><path d="M4017 2293 3815 2293 3839.38 2217 3992.62 2217Z" fill="#678D98" fill-rule="evenodd" fill-opacity="1"/><path d="M3613 2123 3613 2173.12C3613 2200.12 3634.8 2222 3661.69 2222L4169.31 2222C4196.2 2222 4218 2200.12 4218 2173.12L4218 2123Z" fill="#A8D3D8" fill-rule="evenodd" fill-opacity="1"/><path d="M4171.8 2123 4171.8 2129.13C4171.8 2156.12 4150.03 2178.01 4123.17 2178.01L3616.19 2178.01C3615.46 2178.01 3614.73 2177.98 3614 2177.95 3616.41 2202.68 3637.16 2222 3662.39 2222L4169.37 2222C4196.23 2222 4218 2200.12 4218 2173.12L4218 2123 4171.8 2123Z" fill="#8EBAC5" fill-rule="evenodd" fill-opacity="1"/><path d="M3923.34 2181.25 3907.66 2181.25C3902.62 2181.25 3898.54 2177.16 3898.54 2172.12 3898.54 2167.08 3902.62 2163 3907.66 2163L3923.34 2163C3928.38 2163 3932.46 2167.08 3932.46 2172.12 3932.46 2177.16 3928.38 2181.25 3923.34 2181.25ZM4042.89 2307 3788.11 2307C3783.08 2307 3779 2302.92 3779 2297.88 3779 2292.84 3783.08 2288.75 3788.11 2288.75L4042.89 2288.75C4047.92 2288.75 4052 2292.84 4052 2297.88 4052 2302.92 4047.92 2307 4042.89 2307Z" fill="#537983" fill-rule="evenodd" fill-opacity="1"/><path d="M3438.93 1406 2799.07 1406C2795.74 1406 2793 1403.26 2793 1399.92L2793 1286 3445 1286 3445 1399.92C3445 1403.26 3442.26 1406 3438.93 1406Z" fill="#6E6B87" fill-rule="evenodd" fill-opacity="1"/><path d="M3439 1406 3400 1406 3400 1286 3445 1286 3445 1399.92C3445 1403.26 3442.29 1406 3439 1406Z" fill="#625F78" fill-rule="evenodd" fill-opacity="1"/><path d="M3445 1189 2793 1189 2793 1075.08C2793 1071.74 2795.74 1069 2799.07 1069L3438.94 1069C3442.26 1069 3445 1071.74 3445 1075.08L3445 1189Z" fill="#EC5569" fill-rule="evenodd" fill-opacity="1"/><path d="M3445 1189 3400 1189 3400 1069 3439 1069C3442.29 1069 3445 1071.74 3445 1075.08L3445 1189Z" fill="#BD2C30" fill-rule="evenodd" fill-opacity="1"/><path d="M3489.93 1360 2748.07 1360C2744.74 1360 2742 1357.27 2742 1353.95L2742 1121.05C2742 1117.73 2744.74 1115 2748.07 1115L3489.93 1115C3493.26 1115 3496 1117.73 3496 1121.05L3496 1353.95C3496 1357.27 3493.26 1360 3489.93 1360Z" fill="#CBDAE0" fill-rule="evenodd" fill-opacity="1"/><path d="M3490 1360 3451 1360 3451 1115 3490 1115C3493.29 1115 3496 1117.73 3496 1121.05L3496 1353.95C3496 1357.27 3493.29 1360 3490 1360Z" fill="#A8B5BA" fill-rule="evenodd" fill-opacity="1"/><path d="M3169 1194.88 3169 1252.81C3169 1256.03 3166.35 1258.69 3163.12 1258.69L3154.8 1258.69C3151.57 1258.69 3148.92 1261.35 3148.92 1264.57L3148.92 1280.11C3148.92 1283.34 3146.26 1286 3143.04 1286L3091.96 1286C3088.74 1286 3086.08 1283.34 3086.08 1280.11L3086.08 1264.57C3086.08 1261.35 3083.43 1258.69 3080.2 1258.69L3071.88 1258.69C3068.66 1258.69 3066 1256.03 3066 1252.81L3066 1194.88C3066 1191.66 3068.66 1189 3071.88 1189L3163.12 1189C3166.35 1189 3169 1191.66 3169 1194.88Z" fill="#444B66" fill-rule="evenodd" fill-opacity="1"/><path d="M3028 1194.88 3028 1252.81C3028 1256.03 3025.35 1258.69 3022.12 1258.69L3013.8 1258.69C3010.57 1258.69 3007.92 1261.35 3007.92 1264.57L3007.92 1280.11C3007.92 1283.34 3005.26 1286 3002.04 1286L2950.96 1286C2947.74 1286 2945.08 1283.34 2945.08 1280.11L2945.08 1264.57C2945.08 1261.35 2942.43 1258.69 2939.2 1258.69L2930.88 1258.69C2927.66 1258.69 2925 1256.03 2925 1252.81L2925 1194.88C2925 1191.66 2927.66 1189 2930.88 1189L3022.12 1189C3025.35 1189 3028 1191.66 3028 1194.88Z" fill="#444B66" fill-rule="evenodd" fill-opacity="1"/><path d="M3310 1194.88 3310 1252.81C3310 1256.03 3307.35 1258.69 3304.12 1258.69L3295.8 1258.69C3292.57 1258.69 3289.92 1261.35 3289.92 1264.57L3289.92 1280.11C3289.92 1283.34 3287.26 1286 3284.04 1286L3232.96 1286C3229.74 1286 3227.08 1283.34 3227.08 1280.11L3227.08 1264.57C3227.08 1261.35 3224.43 1258.69 3221.2 1258.69L3212.88 1258.69C3209.65 1258.69 3207 1256.03 3207 1252.81L3207 1194.88C3207 1191.66 3209.65 1189 3212.88 1189L3304.12 1189C3307.35 1189 3310 1191.66 3310 1194.88Z" fill="#EA7131" fill-rule="evenodd" fill-opacity="1"/><path d="M3451 1194.88 3451 1252.81C3451 1256.03 3448.32 1258.69 3445.06 1258.69L3436.66 1258.69C3433.41 1258.69 3430.73 1261.35 3430.73 1264.57L3430.73 1280.11C3430.73 1283.34 3428.04 1286 3424.79 1286L3373.21 1286C3369.95 1286 3367.27 1283.34 3367.27 1280.11L3367.27 1264.57C3367.27 1261.35 3364.59 1258.69 3361.33 1258.69L3352.94 1258.69C3349.68 1258.69 3347 1256.03 3347 1252.81L3347 1194.88C3347 1191.66 3349.68 1189 3352.94 1189L3445.06 1189C3448.32 1189 3451 1191.66 3451 1194.88Z" fill="#4EA72E" fill-rule="evenodd" fill-opacity="1"/><path d="M2878.96 1295 2793.04 1295C2786.99 1295 2782 1290 2782 1283.94 2782 1277.87 2786.99 1272.87 2793.04 1272.87L2878.96 1272.87C2885.01 1272.87 2890 1277.87 2890 1283.94 2890 1290 2885.01 1295 2878.96 1295ZM2878.96 1264.04 2793.04 1264.04C2786.99 1264.04 2782 1259.05 2782 1252.98 2782 1246.91 2786.99 1241.92 2793.04 1241.92L2878.96 1241.92C2885.01 1241.92 2890 1246.91 2890 1252.98 2890 1259.05 2885.01 1264.04 2878.96 1264.04ZM2878.96 1233.09 2793.04 1233.09C2786.99 1233.09 2782 1228.09 2782 1222.02 2782 1215.95 2786.99 1210.96 2793.04 1210.96L2878.96 1210.96C2885.01 1210.96 2890 1215.95 2890 1222.02 2890 1228.09 2885.01 1233.09 2878.96 1233.09ZM2878.96 1202.13 2793.04 1202.13C2786.99 1202.13 2782 1197.13 2782 1191.06 2782 1184.99 2786.99 1180 2793.04 1180L2878.96 1180C2885.01 1180 2890 1184.99 2890 1191.06 2890 1197.13 2885.01 1202.13 2878.96 1202.13Z" fill="#444B66" fill-rule="evenodd" fill-opacity="1"/><path d="M1612 1238 2977.06 1238" stroke="#156082" stroke-width="24.0625" stroke-linecap="butt" stroke-linejoin="miter" stroke-miterlimit="8" stroke-opacity="1" fill="none" fill-rule="evenodd"/><path d="M1187.29 1225.06 484 776" stroke="#4EA72E" stroke-width="24.0625" stroke-linecap="butt" stroke-linejoin="miter" stroke-miterlimit="8" stroke-opacity="1" fill="none" fill-rule="evenodd"/><path d="M0 0 531.425 461.83" stroke="#4EA72E" stroke-width="24.0625" stroke-linecap="butt" stroke-linejoin="miter" stroke-miterlimit="8" stroke-opacity="1" fill="none" fill-rule="evenodd" transform="matrix(1 0 0 -1 3384 1237.83)"/><path d="M3258 1225 3905.64 1785.19" stroke="#E97132" stroke-width="24.0625" stroke-linecap="butt" stroke-linejoin="miter" stroke-miterlimit="8" stroke-opacity="1" fill="none" fill-rule="evenodd"/><path d="M0 0 870.06 560.194" stroke="#E97132" stroke-width="24.0625" stroke-linecap="butt" stroke-linejoin="miter" stroke-miterlimit="8" stroke-opacity="1" fill="none" fill-rule="evenodd" transform="matrix(-1 0 0 1 1330.06 1225)"/><text fill="#156082" fill-opacity="1" font-family="Aptos,Aptos_MSFontService,sans-serif" font-style="normal" font-variant="normal" font-weight="700" font-stretch="normal" font-size="83" text-anchor="start" direction="ltr" writing-mode="lr-tb" unicode-bidi="normal" text-decoration="none" transform="matrix(1 0 0 1 1959.63 1220)">VLAN TRUNK</text><text fill="#000000" fill-opacity="1" font-family="Aptos,Aptos_MSFontService,sans-serif" font-style="normal" font-variant="normal" font-weight="700" font-stretch="normal" font-size="83" text-anchor="start" direction="ltr" writing-mode="lr-tb" unicode-bidi="normal" text-decoration="none" transform="matrix(1 0 0 1 324.805 137)">VLAN 10</text><text fill="#000000" fill-opacity="1" font-family="Aptos,Aptos_MSFontService,sans-serif" font-style="normal" font-variant="normal" font-weight="700" font-stretch="normal" font-size="83" text-anchor="start" direction="ltr" writing-mode="lr-tb" unicode-bidi="normal" text-decoration="none" transform="matrix(1 0 0 1 3749.85 137)">VLAN 10</text><text fill="#000000" fill-opacity="1" font-family="Aptos,Aptos_MSFontService,sans-serif" font-style="normal" font-variant="normal" font-weight="700" font-stretch="normal" font-size="83" text-anchor="start" direction="ltr" writing-mode="lr-tb" unicode-bidi="normal" text-decoration="none" transform="matrix(1 0 0 1 322.714 1669)">VLAN 20</text><text fill="#000000" fill-opacity="1" font-family="Aptos,Aptos_MSFontService,sans-serif" font-style="normal" font-variant="normal" font-weight="700" font-stretch="normal" font-size="83" text-anchor="start" direction="ltr" writing-mode="lr-tb" unicode-bidi="normal" text-decoration="none" transform="matrix(1 0 0 1 3747.76 1669)">VLAN 20</text><path d="M8.04794-3.01383 122.642 302.99 106.546 309.018-8.04794 3.01383ZM135.724 288.914 129.663 346.243 87.4361 306.997Z" fill="#000000" fill-rule="nonzero" fill-opacity="1" transform="matrix(-1 0 0 1 1325.16 833.5)"/><path d="M1333.09 833.297 1340.51 1146.31 1323.33 1146.72 1315.91 833.704ZM1357.49 1137.32 1332.94 1189.47 1305.94 1138.54Z" fill="#000000" fill-rule="nonzero" fill-opacity="1"/><path d="M6.54502-5.56913 258.861 290.961 245.771 302.099-6.54502 5.56913ZM266.382 273.278 280.162 329.255 227.112 306.693Z" fill="#000000" fill-rule="nonzero" fill-opacity="1" transform="matrix(-1 0 0 1 1937.66 860.5)"/><text fill="#000000" fill-opacity="1" font-family="Aptos,Aptos_MSFontService,sans-serif" font-style="normal" font-variant="normal" font-weight="400" font-stretch="normal" font-size="83" text-anchor="start" direction="ltr" writing-mode="lr-tb" unicode-bidi="normal" text-decoration="none" transform="matrix(1 0 0 1 1726.28 819)">TRUNK Port</text><text fill="#000000" fill-opacity="1" font-family="Aptos,Aptos_MSFontService,sans-serif" font-style="normal" font-variant="normal" font-weight="400" font-stretch="normal" font-size="83" text-anchor="start" direction="ltr" writing-mode="lr-tb" unicode-bidi="normal" text-decoration="none" transform="matrix(1 0 0 1 1070.13 792)">ACCESS Ports</text></g></g></svg>