<svg width="1663" height="1586" xmlns="http://www.w3.org/2000/svg" xmlns:xlink="http://www.w3.org/1999/xlink" xml:space="preserve" overflow="hidden"><g transform="translate(-2695 -389)"><g><path d="M2699.64 402.152 3524.04 402.152 3524.04 535.986 2699.64 535.986Z" fill="#156082" fill-rule="evenodd" fill-opacity="1"/><path d="M3524.04 402.152 4348.44 402.152 4348.44 535.986 3524.04 535.986Z" fill="#156082" fill-rule="evenodd" fill-opacity="1"/><path d="M2699.64 535.986 3524.04 535.986 3524.04 669.819 2699.64 669.819Z" fill="#CCD2D8" fill-rule="evenodd" fill-opacity="1"/><path d="M3524.04 535.986 4348.44 535.986 4348.44 669.819 3524.04 669.819Z" fill="#CCD2D8" fill-rule="evenodd" fill-opacity="1"/><path d="M2699.64 669.819 3524.04 669.819 3524.04 803.652 2699.64 803.652Z" fill="#E7EAED" fill-rule="evenodd" fill-opacity="1"/><path d="M3524.04 669.819 4348.44 669.819 4348.44 803.652 3524.04 803.652Z" fill="#E7EAED" fill-rule="evenodd" fill-opacity="1"/><path d="M3524.04 399.861 3524.04 805.944" stroke="#FFFFFF" stroke-width="4.58333" stroke-linecap="butt" stroke-linejoin="round" stroke-miterlimit="10" stroke-opacity="1" fill="none" fill-rule="evenodd"/><path d="M2697.35 535.986 4350.73 535.986" stroke="#FFFFFF" stroke-width="13.75" stroke-linecap="butt" stroke-linejoin="round" stroke-miterlimit="10" stroke-opacity="1" fill="none" fill-rule="evenodd"/><path d="M2697.35 669.819 4350.73 669.819" stroke="#FFFFFF" stroke-width="4.58333" stroke-linecap="butt" stroke-linejoin="round" stroke-miterlimit="10" stroke-opacity="1" fill="none" fill-rule="evenodd"/><path d="M2699.64 399.861 2699.64 805.944" stroke="#FFFFFF" stroke-width="4.58333" stroke-linecap="butt" stroke-linejoin="round" stroke-miterlimit="10" stroke-opacity="1" fill="none" fill-rule="evenodd"/><path d="M4348.44 399.861 4348.44 805.944" stroke="#FFFFFF" stroke-width="4.58333" stroke-linecap="butt" stroke-linejoin="round" stroke-miterlimit="10" stroke-opacity="1" fill="none" fill-rule="evenodd"/><path d="M2697.35 402.152 4350.73 402.152" stroke="#FFFFFF" stroke-width="4.58333" stroke-linecap="butt" stroke-linejoin="round" stroke-miterlimit="10" stroke-opacity="1" fill="none" fill-rule="evenodd"/><path d="M2697.35 803.652 4350.73 803.652" stroke="#FFFFFF" stroke-width="4.58333" stroke-linecap="butt" stroke-linejoin="round" stroke-miterlimit="10" stroke-opacity="1" fill="none" fill-rule="evenodd"/><g><text fill="#FFFFFF" fill-opacity="1" font-family="Aptos,Aptos_MSFontService,sans-serif" font-style="normal" font-variant="normal" font-weight="700" font-stretch="normal" font-size="83" text-anchor="start" direction="ltr" writing-mode="lr-tb" unicode-bidi="normal" text-decoration="none" transform="matrix(1 0 0 1 3557.04 495)">Name</text></g><g><text fill="#FFFFFF" fill-opacity="1" font-family="Aptos,Aptos_MSFontService,sans-serif" font-style="normal" font-variant="normal" font-weight="700" font-stretch="normal" font-size="83" text-anchor="start" direction="ltr" writing-mode="lr-tb" unicode-bidi="normal" text-decoration="none" transform="matrix(1 0 0 1 2732.64 495)">KundenID</text></g><g><text fill="#000000" fill-opacity="1" font-family="Aptos,Aptos_MSFontService,sans-serif" font-style="normal" font-variant="normal" font-weight="400" font-stretch="normal" font-size="83" text-anchor="start" direction="ltr" writing-mode="lr-tb" unicode-bidi="normal" text-decoration="none" transform="matrix(1 0 0 1 3557.04 628)">Müller</text></g><g><text fill="#000000" fill-opacity="1" font-family="Aptos,Aptos_MSFontService,sans-serif" font-style="normal" font-variant="normal" font-weight="400" font-stretch="normal" font-size="83" text-anchor="start" direction="ltr" writing-mode="lr-tb" unicode-bidi="normal" text-decoration="none" transform="matrix(1 0 0 1 2732.64 628)">1</text></g><g><text fill="#000000" fill-opacity="1" font-family="Aptos,Aptos_MSFontService,sans-serif" font-style="normal" font-variant="normal" font-weight="400" font-stretch="normal" font-size="83" text-anchor="start" direction="ltr" writing-mode="lr-tb" unicode-bidi="normal" text-decoration="none" transform="matrix(1 0 0 1 3557.04 762)">Schmid</text></g><g><text fill="#000000" fill-opacity="1" font-family="Aptos,Aptos_MSFontService,sans-serif" font-style="normal" font-variant="normal" font-weight="400" font-stretch="normal" font-size="83" text-anchor="start" direction="ltr" writing-mode="lr-tb" unicode-bidi="normal" text-decoration="none" transform="matrix(1 0 0 1 2732.64 762)">2</text></g><path d="M2699.64 1173.91 3524.04 1173.91 3524.04 1307.74 2699.64 1307.74Z" fill="#E97132" fill-rule="evenodd" fill-opacity="1"/><path d="M3524.04 1173.91 4348.44 1173.91 4348.44 1307.74 3524.04 1307.74Z" fill="#E97132" fill-rule="evenodd" fill-opacity="1"/><path d="M2699.64 1307.74 3524.04 1307.74 3524.04 1441.57 2699.64 1441.57Z" fill="#F7D5CD" fill-rule="evenodd" fill-opacity="1"/><path d="M3524.04 1307.74 4348.44 1307.74 4348.44 1441.57 3524.04 1441.57Z" fill="#F7D5CD" fill-rule="evenodd" fill-opacity="1"/><path d="M2699.64 1441.57 3524.04 1441.57 3524.04 1575.41 2699.64 1575.41Z" fill="#FBEBE8" fill-rule="evenodd" fill-opacity="1"/><path d="M3524.04 1441.57 4348.44 1441.57 4348.44 1575.41 3524.04 1575.41Z" fill="#FBEBE8" fill-rule="evenodd" fill-opacity="1"/><path d="M2699.64 1575.41 3524.04 1575.41 3524.04 1709.24 2699.64 1709.24Z" fill="#F7D5CD" fill-rule="evenodd" fill-opacity="1"/><path d="M3524.04 1575.41 4348.44 1575.41 4348.44 1709.24 3524.04 1709.24Z" fill="#F7D5CD" fill-rule="evenodd" fill-opacity="1"/><path d="M3524.04 1171.61 3524.04 1711.53" stroke="#FFFFFF" stroke-width="4.58333" stroke-linecap="butt" stroke-linejoin="round" stroke-miterlimit="10" stroke-opacity="1" fill="none" fill-rule="evenodd"/><path d="M2697.35 1307.74 4350.73 1307.74" stroke="#FFFFFF" stroke-width="13.75" stroke-linecap="butt" stroke-linejoin="round" stroke-miterlimit="10" stroke-opacity="1" fill="none" fill-rule="evenodd"/><path d="M2697.35 1441.57 4350.73 1441.57" stroke="#FFFFFF" stroke-width="4.58333" stroke-linecap="butt" stroke-linejoin="round" stroke-miterlimit="10" stroke-opacity="1" fill="none" fill-rule="evenodd"/><path d="M2697.35 1575.41 4350.73 1575.41" stroke="#FFFFFF" stroke-width="4.58333" stroke-linecap="butt" stroke-linejoin="round" stroke-miterlimit="10" stroke-opacity="1" fill="none" fill-rule="evenodd"/><path d="M2699.64 1171.61 2699.64 1711.53" stroke="#FFFFFF" stroke-width="4.58333" stroke-linecap="butt" stroke-linejoin="round" stroke-miterlimit="10" stroke-opacity="1" fill="none" fill-rule="evenodd"/><path d="M4348.44 1171.61 4348.44 1711.53" stroke="#FFFFFF" stroke-width="4.58333" stroke-linecap="butt" stroke-linejoin="round" stroke-miterlimit="10" stroke-opacity="1" fill="none" fill-rule="evenodd"/><path d="M2697.35 1173.91 4350.73 1173.91" stroke="#FFFFFF" stroke-width="4.58333" stroke-linecap="butt" stroke-linejoin="round" stroke-miterlimit="10" stroke-opacity="1" fill="none" fill-rule="evenodd"/><path d="M2697.35 1709.24 4350.73 1709.24" stroke="#FFFFFF" stroke-width="4.58333" stroke-linecap="butt" stroke-linejoin="round" stroke-miterlimit="10" stroke-opacity="1" fill="none" fill-rule="evenodd"/><g><text fill="#FFFFFF" fill-opacity="1" font-family="Aptos,Aptos_MSFontService,sans-serif" font-style="normal" font-variant="normal" font-weight="700" font-stretch="normal" font-size="83" text-anchor="start" direction="ltr" writing-mode="lr-tb" unicode-bidi="normal" text-decoration="none" transform="matrix(1 0 0 1 3557.04 1266)">KundenID</text></g><g><text fill="#FFFFFF" fill-opacity="1" font-family="Aptos,Aptos_MSFontService,sans-serif" font-style="normal" font-variant="normal" font-weight="700" font-stretch="normal" font-size="83" text-anchor="start" direction="ltr" writing-mode="lr-tb" unicode-bidi="normal" text-decoration="none" transform="matrix(1 0 0 1 2732.64 1266)">BestellID</text></g><g><text fill="#000000" fill-opacity="1" font-family="Aptos,Aptos_MSFontService,sans-serif" font-style="normal" font-variant="normal" font-weight="400" font-stretch="normal" font-size="83" text-anchor="start" direction="ltr" writing-mode="lr-tb" unicode-bidi="normal" text-decoration="none" transform="matrix(1 0 0 1 3557.04 1400)">1</text></g><g><text fill="#000000" fill-opacity="1" font-family="Aptos,Aptos_MSFontService,sans-serif" font-style="normal" font-variant="normal" font-weight="400" font-stretch="normal" font-size="83" text-anchor="start" direction="ltr" writing-mode="lr-tb" unicode-bidi="normal" text-decoration="none" transform="matrix(1 0 0 1 2732.64 1400)">101</text></g><g><text fill="#000000" fill-opacity="1" font-family="Aptos,Aptos_MSFontService,sans-serif" font-style="normal" font-variant="normal" font-weight="400" font-stretch="normal" font-size="83" text-anchor="start" direction="ltr" writing-mode="lr-tb" unicode-bidi="normal" text-decoration="none" transform="matrix(1 0 0 1 3557.04 1534)">2</text></g><g><text fill="#000000" fill-opacity="1" font-family="Aptos,Aptos_MSFontService,sans-serif" font-style="normal" font-variant="normal" font-weight="400" font-stretch="normal" font-size="83" text-anchor="start" direction="ltr" writing-mode="lr-tb" unicode-bidi="normal" text-decoration="none" transform="matrix(1 0 0 1 2732.64 1534)">102</text></g><g><text fill="#000000" fill-opacity="1" font-family="Aptos,Aptos_MSFontService,sans-serif" font-style="normal" font-variant="normal" font-weight="400" font-stretch="normal" font-size="83" text-anchor="start" direction="ltr" writing-mode="lr-tb" unicode-bidi="normal" text-decoration="none" transform="matrix(1 0 0 1 3557.04 1668)">3</text></g><g><text fill="#000000" fill-opacity="1" font-family="Aptos,Aptos_MSFontService,sans-serif" font-style="normal" font-variant="normal" font-weight="400" font-stretch="normal" font-size="83" text-anchor="start" direction="ltr" writing-mode="lr-tb" unicode-bidi="normal" text-decoration="none" transform="matrix(1 0 0 1 2732.64 1668)">103</text></g><rect x="3525.5" y="1579.5" width="116" height="130" stroke="#FF0000" stroke-width="6.875" stroke-linecap="butt" stroke-linejoin="miter" stroke-miterlimit="8" stroke-opacity="1" fill="none"/><path d="M3836.44 1875.02 3658.89 1726.82 3663.3 1721.55 3840.85 1869.74ZM3655.8 1737.68 3643.5 1709.5 3673.42 1716.57Z" fill="#FF0000" fill-rule="nonzero" fill-opacity="1"/><text fill="#FF0000" fill-opacity="1" font-family="Aptos,Aptos_MSFontService,sans-serif" font-style="normal" font-variant="normal" font-weight="400" font-stretch="normal" font-size="83" text-anchor="start" direction="ltr" writing-mode="lr-tb" unicode-bidi="normal" text-decoration="none" transform="matrix(1 0 0 1 3870.84 1898)">Fehler!</text></g></g></svg>