<?xml version="1.0" encoding="UTF-8"?>
<svg xmlns:xlink="http://www.w3.org/1999/xlink" xmlns="http://www.w3.org/2000/svg" fill-opacity="1" color-rendering="auto" color-interpolation="auto" text-rendering="auto" stroke="black" stroke-linecap="square" width="330" stroke-miterlimit="10" shape-rendering="auto" stroke-opacity="1" fill="black" stroke-dasharray="none" font-weight="normal" stroke-width="1" viewBox="580 200 330 800" height="800" font-family="'Dialog'" font-style="normal" stroke-linejoin="miter" font-size="12px" stroke-dashoffset="0" image-rendering="auto">
  <!--Generated by the Batik Graphics2D SVG Generator-->
  <defs id="genericDefs"></defs>
  <g>
    <defs id="defs1">
      <clipPath id="clipPath1">
        <path d="M0 0 L2147483647 0 L2147483647 2147483647 L0 2147483647 L0 0 Z"></path>
      </clipPath>
      <clipPath id="clipPath2">
        <path d="M0 0 L0 20 L20 20 L20 0 Z"></path>
      </clipPath>
      <clipPath id="clipPath3">
        <path d="M0 0 L0 170 L290 170 L290 0 Z"></path>
      </clipPath>
      <clipPath id="clipPath4">
        <path d="M0 0 L0 80 L270 80 L270 0 Z"></path>
      </clipPath>
      <clipPath id="clipPath5">
        <path d="M0 0 L0 70 L210 70 L210 0 Z"></path>
      </clipPath>
      <clipPath id="clipPath6">
        <path d="M0 0 L0 80 L150 80 L150 0 Z"></path>
      </clipPath>
      <clipPath id="clipPath7">
        <path d="M0 0 L0 90 L30 90 L30 0 Z"></path>
      </clipPath>
      <clipPath id="clipPath8">
        <path d="M0 0 L0 70 L100 70 L100 0 Z"></path>
      </clipPath>
    </defs>
    <g transform="translate(690,220)">
      <circle r="8.75" clip-path="url(#clipPath2)" cx="10.25" cy="10.25" stroke="none"></circle>
      <circle fill="none" r="8.75" clip-path="url(#clipPath2)" cx="10.25" cy="10.25"></circle>
    </g>
    <g fill="rgb(255,255,255)" fill-opacity="0" transform="translate(600,810)" stroke-opacity="0" stroke="rgb(255,255,255)">
      <rect x="0.5" y="0.5" clip-path="url(#clipPath3)" width="288.5" rx="20" ry="20" height="168.5" stroke="none"></rect>
    </g>
    <g transform="translate(600,810)">
      <rect x="0.5" y="0.5" clip-path="url(#clipPath3)" fill="none" width="288.5" rx="20" ry="20" height="168.5"></rect>
      <text x="89" font-size="14px" y="22.8174" clip-path="url(#clipPath3)" font-family="sans-serif" stroke="none" font-weight="bold" xml:space="preserve">ZEIT_ANZEIGEN</text>
      <path fill="none" d="M1 28.8174 L289 28.8174" clip-path="url(#clipPath3)"></path>
      <text x="5" font-size="14px" y="43.6348" clip-path="url(#clipPath3)" font-family="sans-serif" stroke="none" xml:space="preserve">entry/ausgebenLCD_Menu();</text>
      <text x="5" font-size="14px" y="59.4521" clip-path="url(#clipPath3)" font-family="sans-serif" stroke="none" xml:space="preserve">         sekTimer.resume();</text>
      <text x="5" font-size="14px" y="75.2695" clip-path="url(#clipPath3)" font-family="sans-serif" stroke="none" xml:space="preserve">exit/sekTimer.pause();</text>
      <text x="5" font-size="14px" y="106.9043" clip-path="url(#clipPath3)" font-family="sans-serif" stroke="none" xml:space="preserve">isr_sekTimer()/incUhrzeit();</text>
      <text x="5" font-size="14px" y="122.7217" clip-path="url(#clipPath3)" font-family="sans-serif" stroke="none" xml:space="preserve">                       ausgebenLCD_Uhrzeit();</text>
      <text x="5" font-size="14px" y="138.5391" clip-path="url(#clipPath3)" font-family="sans-serif" stroke="none" xml:space="preserve">                       ausgebenLED_Sekunden();</text>
      <text x="5" font-size="14px" y="154.3564" clip-path="url(#clipPath3)" font-family="sans-serif" stroke="none" xml:space="preserve">                       ausgebenMatrix();</text>
    </g>
    <g fill="rgb(255,255,255)" fill-opacity="0" transform="translate(600,670)" stroke-opacity="0" stroke="rgb(255,255,255)">
      <rect x="0.5" y="0.5" clip-path="url(#clipPath4)" width="268.5" rx="16" ry="16" height="78.5" stroke="none"></rect>
    </g>
    <g transform="translate(600,670)">
      <rect x="0.5" y="0.5" clip-path="url(#clipPath4)" fill="none" width="268.5" rx="16" ry="16" height="78.5"></rect>
      <path fill="none" d="M1 32.5913 L269 32.5913" clip-path="url(#clipPath4)"></path>
    </g>
    <g fill="rgb(255,255,255)" fill-opacity="0" transform="translate(600,530)" stroke-opacity="0" stroke="rgb(255,255,255)">
      <rect x="0.5" y="0.5" clip-path="url(#clipPath4)" width="268.5" rx="16" ry="16" height="78.5" stroke="none"></rect>
    </g>
    <g transform="translate(600,530)">
      <rect x="0.5" y="0.5" clip-path="url(#clipPath4)" fill="none" width="268.5" rx="16" ry="16" height="78.5"></rect>
      <path fill="none" d="M1 32.5913 L269 32.5913" clip-path="url(#clipPath4)"></path>
    </g>
    <g fill="rgb(255,255,255)" fill-opacity="0" transform="translate(600,280)" stroke-opacity="0" stroke="rgb(255,255,255)">
      <rect x="0.5" y="0.5" clip-path="url(#clipPath5)" width="208.5" rx="14" ry="14" height="68.5" stroke="none"></rect>
    </g>
    <g transform="translate(600,280)">
      <rect x="0.5" y="0.5" clip-path="url(#clipPath5)" fill="none" width="208.5" rx="14" ry="14" height="68.5"></rect>
      <text x="81" font-size="14px" y="22.8174" clip-path="url(#clipPath5)" font-family="sans-serif" stroke="none" font-weight="bold" xml:space="preserve">INTRO</text>
      <path fill="none" d="M1 28.8174 L209 28.8174" clip-path="url(#clipPath5)"></path>
      <text x="5" font-size="14px" y="43.6348" clip-path="url(#clipPath5)" font-family="sans-serif" stroke="none" xml:space="preserve">entry/ausgebenLCD_Menu();</text>
    </g>
    <g fill="rgb(255,255,255)" fill-opacity="0" transform="translate(600,390)" stroke-opacity="0" stroke="rgb(255,255,255)">
      <rect x="0.5" y="0.5" clip-path="url(#clipPath4)" width="268.5" rx="16" ry="16" height="78.5" stroke="none"></rect>
    </g>
    <g transform="translate(600,390)">
      <rect x="0.5" y="0.5" clip-path="url(#clipPath4)" fill="none" width="268.5" rx="16" ry="16" height="78.5"></rect>
      <path fill="none" d="M1 32.5913 L269 32.5913" clip-path="url(#clipPath4)"></path>
    </g>
    <g transform="translate(690,220)">
      <path fill="none" d="M10.5 10.5 L10.5 59.5" clip-path="url(#clipPath6)"></path>
      <path fill="none" d="M4 48.7417 L10.5 60 L17 48.7417" clip-path="url(#clipPath6)"></path>
      <text x="14" font-size="14px" y="42.9087" clip-path="url(#clipPath6)" font-family="sans-serif" stroke="none" xml:space="preserve">/setup() bzw. init()</text>
    </g>
    <g transform="translate(680,740)">
      <path fill="none" d="M10.5 10.5 L10.5 69.5" clip-path="url(#clipPath7)"></path>
      <path fill="none" d="M4 58.7417 L10.5 70 L17 58.7417" clip-path="url(#clipPath7)"></path>
    </g>
    <g transform="translate(680,600)">
      <path fill="none" d="M10.5 10.5 L10.5 69.5" clip-path="url(#clipPath7)"></path>
      <path fill="none" d="M4 58.7417 L10.5 70 L17 58.7417" clip-path="url(#clipPath7)"></path>
    </g>
    <g transform="translate(680,460)">
      <path fill="none" d="M10.5 10.5 L10.5 69.5" clip-path="url(#clipPath7)"></path>
      <path fill="none" d="M4 58.7417 L10.5 70 L17 58.7417" clip-path="url(#clipPath7)"></path>
    </g>
    <g transform="translate(680,340)">
      <path fill="none" d="M10.5 10.5 L10.5 49.5" clip-path="url(#clipPath8)"></path>
      <path fill="none" d="M4 38.7417 L10.5 50 L17 38.7417" clip-path="url(#clipPath8)"></path>
      <text x="14" font-size="14px" y="37.9087" clip-path="url(#clipPath8)" font-family="sans-serif" stroke="none" xml:space="preserve">isr_Menu()</text>
    </g>
  </g>
</svg>
