<?xml version="1.0" encoding="UTF-8"?>
<svg xmlns:xlink="http://www.w3.org/1999/xlink" xmlns="http://www.w3.org/2000/svg" fill-opacity="1" color-rendering="auto" color-interpolation="auto" text-rendering="auto" stroke="black" stroke-linecap="square" width="560" stroke-miterlimit="10" shape-rendering="auto" stroke-opacity="1" fill="black" stroke-dasharray="none" font-weight="normal" stroke-width="1" viewBox="480 200 560 800" height="800" font-family="'Dialog'" font-style="normal" stroke-linejoin="miter" font-size="12px" stroke-dashoffset="0" image-rendering="auto">
  <!--Generated by the Batik Graphics2D SVG Generator-->
  <defs id="genericDefs"></defs>
  <g>
    <defs id="defs1">
      <clipPath id="clipPath1">
        <path d="M0 0 L2147483647 0 L2147483647 2147483647 L0 2147483647 L0 0 Z"></path>
      </clipPath>
      <clipPath id="clipPath2">
        <path d="M0 0 L0 20 L20 20 L20 0 Z"></path>
      </clipPath>
      <clipPath id="clipPath3">
        <path d="M0 0 L0 40 L40 40 L40 0 Z"></path>
      </clipPath>
      <clipPath id="clipPath4">
        <path d="M0 0 L0 170 L290 170 L290 0 Z"></path>
      </clipPath>
      <clipPath id="clipPath5">
        <path d="M0 0 L0 70 L210 70 L210 0 Z"></path>
      </clipPath>
      <clipPath id="clipPath6">
        <path d="M0 0 L0 80 L150 80 L150 0 Z"></path>
      </clipPath>
      <clipPath id="clipPath7">
        <path d="M0 0 L0 600 L120 600 L120 0 Z"></path>
      </clipPath>
      <clipPath id="clipPath8">
        <path d="M0 0 L0 50 L220 50 L220 0 Z"></path>
      </clipPath>
      <clipPath id="clipPath9">
        <path d="M0 0 L0 40 L200 40 L200 0 Z"></path>
      </clipPath>
      <clipPath id="clipPath10">
        <path d="M0 0 L0 50 L270 50 L270 0 Z"></path>
      </clipPath>
      <clipPath id="clipPath11">
        <path d="M0 0 L0 100 L100 100 L100 0 Z"></path>
      </clipPath>
      <clipPath id="clipPath12">
        <path d="M0 0 L0 70 L100 70 L100 0 Z"></path>
      </clipPath>
    </defs>
    <g transform="translate(690,220)">
      <circle r="8.75" clip-path="url(#clipPath2)" cx="10.25" cy="10.25" stroke="none"></circle>
      <circle fill="none" r="8.75" clip-path="url(#clipPath2)" cx="10.25" cy="10.25"></circle>
    </g>
    <g fill="rgb(255,255,255)" fill-opacity="0" transform="translate(980,700)" stroke-opacity="0" stroke="rgb(255,255,255)">
      <path d="M20.5 1.5 L39 20.5 L20.5 39 L1.5 20.5 Z" stroke="none" clip-path="url(#clipPath3)"></path>
    </g>
    <g transform="translate(980,700)">
      <path fill="none" d="M20.5 1.5 L39 20.5 L20.5 39 L1.5 20.5 Z" clip-path="url(#clipPath3)"></path>
    </g>
    <g fill="rgb(255,255,255)" fill-opacity="0" transform="translate(980,560)" stroke-opacity="0" stroke="rgb(255,255,255)">
      <path d="M20.5 1.5 L39 20.5 L20.5 39 L1.5 20.5 Z" stroke="none" clip-path="url(#clipPath3)"></path>
    </g>
    <g transform="translate(980,560)">
      <path fill="none" d="M20.5 1.5 L39 20.5 L20.5 39 L1.5 20.5 Z" clip-path="url(#clipPath3)"></path>
    </g>
    <g fill="rgb(255,255,255)" fill-opacity="0" transform="translate(980,420)" stroke-opacity="0" stroke="rgb(255,255,255)">
      <path d="M20.5 1.5 L39 20.5 L20.5 39 L1.5 20.5 Z" stroke="none" clip-path="url(#clipPath3)"></path>
    </g>
    <g transform="translate(980,420)">
      <path fill="none" d="M20.5 1.5 L39 20.5 L20.5 39 L1.5 20.5 Z" clip-path="url(#clipPath3)"></path>
    </g>
    <g fill="rgb(255,255,255)" fill-opacity="0" transform="translate(600,810)" stroke-opacity="0" stroke="rgb(255,255,255)">
      <rect x="0.5" y="0.5" clip-path="url(#clipPath4)" width="288.5" rx="20" ry="20" height="168.5" stroke="none"></rect>
    </g>
    <g transform="translate(600,810)">
      <rect x="0.5" y="0.5" clip-path="url(#clipPath4)" fill="none" width="288.5" rx="20" ry="20" height="168.5"></rect>
      <text x="89" font-size="14px" y="22.8174" clip-path="url(#clipPath4)" font-family="sans-serif" stroke="none" font-weight="bold" xml:space="preserve">ZEIT_ANZEIGEN</text>
      <path fill="none" d="M1 28.8174 L289 28.8174" clip-path="url(#clipPath4)"></path>
      <text x="5" font-size="14px" y="43.6348" clip-path="url(#clipPath4)" font-family="sans-serif" stroke="none" xml:space="preserve">entry/ausgebenLCD_Menu();</text>
      <text x="5" font-size="14px" y="59.4521" clip-path="url(#clipPath4)" font-family="sans-serif" stroke="none" xml:space="preserve">         sekTimer.resume();</text>
      <text x="5" font-size="14px" y="75.2695" clip-path="url(#clipPath4)" font-family="sans-serif" stroke="none" xml:space="preserve">exit/sekTimer.pause();</text>
      <text x="5" font-size="14px" y="106.9043" clip-path="url(#clipPath4)" font-family="sans-serif" stroke="none" xml:space="preserve">isr_sekTimer()/incUhrzeit();</text>
      <text x="5" font-size="14px" y="122.7217" clip-path="url(#clipPath4)" font-family="sans-serif" stroke="none" xml:space="preserve">                       ausgebenLCD_Uhrzeit();</text>
      <text x="5" font-size="14px" y="138.5391" clip-path="url(#clipPath4)" font-family="sans-serif" stroke="none" xml:space="preserve">                       ausgebenLED_Sekunden();</text>
      <text x="5" font-size="14px" y="154.3564" clip-path="url(#clipPath4)" font-family="sans-serif" stroke="none" xml:space="preserve">                       ausgebenMatrix();</text>
    </g>
    <g fill="rgb(255,255,255)" fill-opacity="0" transform="translate(600,670)" stroke-opacity="0" stroke="rgb(255,255,255)">
      <rect x="0.5" y="0.5" clip-path="url(#clipPath5)" width="208.5" rx="14" ry="14" height="68.5" stroke="none"></rect>
    </g>
    <g transform="translate(600,670)">
      <rect x="0.5" y="0.5" clip-path="url(#clipPath5)" fill="none" width="208.5" rx="14" ry="14" height="68.5"></rect>
      <text x="31" font-size="14px" y="22.8174" clip-path="url(#clipPath5)" font-family="sans-serif" stroke="none" font-weight="bold" xml:space="preserve">SEKUNDEN_STELLEN</text>
      <path fill="none" d="M1 28.8174 L209 28.8174" clip-path="url(#clipPath5)"></path>
      <text x="5" font-size="14px" y="43.6348" clip-path="url(#clipPath5)" font-family="sans-serif" stroke="none" xml:space="preserve">entry/ausgebenLCD_Menu();</text>
    </g>
    <g fill="rgb(255,255,255)" fill-opacity="0" transform="translate(600,530)" stroke-opacity="0" stroke="rgb(255,255,255)">
      <rect x="0.5" y="0.5" clip-path="url(#clipPath5)" width="208.5" rx="14" ry="14" height="68.5" stroke="none"></rect>
    </g>
    <g transform="translate(600,530)">
      <rect x="0.5" y="0.5" clip-path="url(#clipPath5)" fill="none" width="208.5" rx="14" ry="14" height="68.5"></rect>
      <text x="37" font-size="14px" y="22.8174" clip-path="url(#clipPath5)" font-family="sans-serif" stroke="none" font-weight="bold" xml:space="preserve">MINUTEN_STELLEN</text>
      <path fill="none" d="M1 28.8174 L209 28.8174" clip-path="url(#clipPath5)"></path>
      <text x="5" font-size="14px" y="43.6348" clip-path="url(#clipPath5)" font-family="sans-serif" stroke="none" xml:space="preserve">entry/ausgebenLCD_Menu();</text>
    </g>
    <g fill="rgb(255,255,255)" fill-opacity="0" transform="translate(600,280)" stroke-opacity="0" stroke="rgb(255,255,255)">
      <rect x="0.5" y="0.5" clip-path="url(#clipPath5)" width="208.5" rx="14" ry="14" height="68.5" stroke="none"></rect>
    </g>
    <g transform="translate(600,280)">
      <rect x="0.5" y="0.5" clip-path="url(#clipPath5)" fill="none" width="208.5" rx="14" ry="14" height="68.5"></rect>
      <text x="81" font-size="14px" y="22.8174" clip-path="url(#clipPath5)" font-family="sans-serif" stroke="none" font-weight="bold" xml:space="preserve">INTRO</text>
      <path fill="none" d="M1 28.8174 L209 28.8174" clip-path="url(#clipPath5)"></path>
      <text x="5" font-size="14px" y="43.6348" clip-path="url(#clipPath5)" font-family="sans-serif" stroke="none" xml:space="preserve">entry/ausgebenLCD_Menu();</text>
    </g>
    <g fill="rgb(255,255,255)" fill-opacity="0" transform="translate(600,390)" stroke-opacity="0" stroke="rgb(255,255,255)">
      <rect x="0.5" y="0.5" clip-path="url(#clipPath5)" width="208.5" rx="14" ry="14" height="68.5" stroke="none"></rect>
    </g>
    <g transform="translate(600,390)">
      <rect x="0.5" y="0.5" clip-path="url(#clipPath5)" fill="none" width="208.5" rx="14" ry="14" height="68.5"></rect>
      <text x="36" font-size="14px" y="22.8174" clip-path="url(#clipPath5)" font-family="sans-serif" stroke="none" font-weight="bold" xml:space="preserve">STUNDEN_STELLEN</text>
      <path fill="none" d="M1 28.8174 L209 28.8174" clip-path="url(#clipPath5)"></path>
      <text x="5" font-size="14px" y="43.6348" clip-path="url(#clipPath5)" font-family="sans-serif" stroke="none" xml:space="preserve">entry/ausgebenLCD_Menu();</text>
    </g>
    <g transform="translate(690,220)">
      <path fill="none" d="M10.5 10.5 L10.5 59.5" clip-path="url(#clipPath6)"></path>
      <path fill="none" d="M4 48.7417 L10.5 60 L17 48.7417" clip-path="url(#clipPath6)"></path>
      <text x="14" font-size="14px" y="42.9087" clip-path="url(#clipPath6)" font-family="sans-serif" stroke="none" xml:space="preserve">/setup() bzw. init()</text>
    </g>
    <g transform="translate(500,300)">
      <path fill="none" d="M100.5 580.5 L10.5 580.5" clip-path="url(#clipPath7)"></path>
      <path fill="none" d="M10.5 580.5 L10.5 10.5" clip-path="url(#clipPath7)"></path>
      <path fill="none" d="M10.5 10.5 L99.5 10.5" clip-path="url(#clipPath7)"></path>
      <path fill="none" d="M88.7417 17 L100 10.5 L88.7417 4" clip-path="url(#clipPath7)"></path>
      <text x="14" font-size="14px" y="302.9087" clip-path="url(#clipPath7)" font-family="sans-serif" stroke="none" xml:space="preserve">isr_Menu()</text>
    </g>
    <g transform="translate(800,670)">
      <path fill="none" d="M200.5 30.5 L200.5 20.5" clip-path="url(#clipPath8)"></path>
      <path fill="none" d="M200.5 20.5 L11.5 20.5" clip-path="url(#clipPath8)"></path>
      <path fill="none" d="M22.2583 14 L11 20.5 L22.2583 27" clip-path="url(#clipPath8)"></path>
      <text x="31.4448" font-size="14px" y="16" clip-path="url(#clipPath8)" font-family="sans-serif" stroke="none" xml:space="preserve">[z_sek&gt;=59]/z_sek=0;</text>
    </g>
    <g transform="translate(800,700)">
      <path fill="none" d="M180.5 20.5 L11.5 20.5" clip-path="url(#clipPath9)"></path>
      <path fill="none" d="M22.2583 14 L11 20.5 L22.2583 27" clip-path="url(#clipPath9)"></path>
      <text x="40.9688" font-size="14px" y="16" clip-path="url(#clipPath9)" font-family="sans-serif" stroke="none" xml:space="preserve">[else]/z_sek++;</text>
    </g>
    <g transform="translate(750,730)">
      <path fill="none" d="M10.5 10.5 L10.5 30.5" clip-path="url(#clipPath10)"></path>
      <path fill="none" d="M10.5 30.5 L250.5 30.5" clip-path="url(#clipPath10)"></path>
      <path fill="none" d="M250.5 30.5 L250.5 11.5" clip-path="url(#clipPath10)"></path>
      <path fill="none" d="M257 22.2583 L250.5 11 L244 22.2583" clip-path="url(#clipPath10)"></path>
      <text x="105.2949" font-size="14px" y="26" clip-path="url(#clipPath10)" font-family="sans-serif" stroke="none" xml:space="preserve">isr_S2()</text>
    </g>
    <g transform="translate(680,730)">
      <path fill="none" d="M10.5 10.5 L10.5 79.5" clip-path="url(#clipPath11)"></path>
      <path fill="none" d="M4 68.7417 L10.5 80 L17 68.7417" clip-path="url(#clipPath11)"></path>
      <text x="14" font-size="14px" y="52.9087" clip-path="url(#clipPath11)" font-family="sans-serif" stroke="none" xml:space="preserve">isr_Menu()</text>
    </g>
    <g transform="translate(680,590)">
      <path fill="none" d="M10.5 10.5 L10.5 79.5" clip-path="url(#clipPath11)"></path>
      <path fill="none" d="M4 68.7417 L10.5 80 L17 68.7417" clip-path="url(#clipPath11)"></path>
      <text x="14" font-size="14px" y="52.9087" clip-path="url(#clipPath11)" font-family="sans-serif" stroke="none" xml:space="preserve">isr_Menu()</text>
    </g>
    <g transform="translate(800,530)">
      <path fill="none" d="M200.5 30.5 L200.5 20.5" clip-path="url(#clipPath8)"></path>
      <path fill="none" d="M200.5 20.5 L11.5 20.5" clip-path="url(#clipPath8)"></path>
      <path fill="none" d="M22.2583 14 L11 20.5 L22.2583 27" clip-path="url(#clipPath8)"></path>
      <text x="28.7583" font-size="14px" y="16" clip-path="url(#clipPath8)" font-family="sans-serif" stroke="none" xml:space="preserve">[z_min&gt;=59]/z_min=0;</text>
    </g>
    <g transform="translate(800,560)">
      <path fill="none" d="M180.5 20.5 L11.5 20.5" clip-path="url(#clipPath9)"></path>
      <path fill="none" d="M22.2583 14 L11 20.5 L22.2583 27" clip-path="url(#clipPath9)"></path>
      <text x="39.6255" font-size="14px" y="16" clip-path="url(#clipPath9)" font-family="sans-serif" stroke="none" xml:space="preserve">[else]/z_min++;</text>
    </g>
    <g transform="translate(750,590)">
      <path fill="none" d="M10.5 10.5 L10.5 30.5" clip-path="url(#clipPath10)"></path>
      <path fill="none" d="M10.5 30.5 L250.5 30.5" clip-path="url(#clipPath10)"></path>
      <path fill="none" d="M250.5 30.5 L250.5 11.5" clip-path="url(#clipPath10)"></path>
      <path fill="none" d="M257 22.2583 L250.5 11 L244 22.2583" clip-path="url(#clipPath10)"></path>
      <text x="105.2949" font-size="14px" y="26" clip-path="url(#clipPath10)" font-family="sans-serif" stroke="none" xml:space="preserve">isr_S2()</text>
    </g>
    <g transform="translate(800,420)">
      <path fill="none" d="M180.5 20.5 L11.5 20.5" clip-path="url(#clipPath9)"></path>
      <path fill="none" d="M22.2583 14 L11 20.5 L22.2583 27" clip-path="url(#clipPath9)"></path>
      <text x="41.936" font-size="14px" y="16" clip-path="url(#clipPath9)" font-family="sans-serif" stroke="none" xml:space="preserve">[else]/z_std++;</text>
    </g>
    <g transform="translate(800,390)">
      <path fill="none" d="M200.5 30.5 L200.5 20.5" clip-path="url(#clipPath8)"></path>
      <path fill="none" d="M200.5 20.5 L11.5 20.5" clip-path="url(#clipPath8)"></path>
      <path fill="none" d="M22.2583 14 L11 20.5 L22.2583 27" clip-path="url(#clipPath8)"></path>
      <text x="33.3794" font-size="14px" y="16" clip-path="url(#clipPath8)" font-family="sans-serif" stroke="none" xml:space="preserve">[z_std&gt;=23]/z_std=0;</text>
    </g>
    <g transform="translate(750,450)">
      <path fill="none" d="M10.5 10.5 L10.5 30.5" clip-path="url(#clipPath10)"></path>
      <path fill="none" d="M10.5 30.5 L250.5 30.5" clip-path="url(#clipPath10)"></path>
      <path fill="none" d="M250.5 30.5 L250.5 11.5" clip-path="url(#clipPath10)"></path>
      <path fill="none" d="M257 22.2583 L250.5 11 L244 22.2583" clip-path="url(#clipPath10)"></path>
      <text x="105.2949" font-size="14px" y="26" clip-path="url(#clipPath10)" font-family="sans-serif" stroke="none" xml:space="preserve">isr_S2()</text>
    </g>
    <g transform="translate(680,450)">
      <path fill="none" d="M10.5 10.5 L10.5 79.5" clip-path="url(#clipPath11)"></path>
      <path fill="none" d="M4 68.7417 L10.5 80 L17 68.7417" clip-path="url(#clipPath11)"></path>
      <text x="14" font-size="14px" y="52.9087" clip-path="url(#clipPath11)" font-family="sans-serif" stroke="none" xml:space="preserve">isr_Menu()</text>
    </g>
    <g transform="translate(680,340)">
      <path fill="none" d="M10.5 10.5 L10.5 49.5" clip-path="url(#clipPath12)"></path>
      <path fill="none" d="M4 38.7417 L10.5 50 L17 38.7417" clip-path="url(#clipPath12)"></path>
      <text x="14" font-size="14px" y="37.9087" clip-path="url(#clipPath12)" font-family="sans-serif" stroke="none" xml:space="preserve">isr_Menu()</text>
    </g>
  </g>
</svg>
