<svg width="3209" height="1563" xmlns="http://www.w3.org/2000/svg" xmlns:xlink="http://www.w3.org/1999/xlink" xml:space="preserve" overflow="hidden"><g transform="translate(-650 -380)"><g><rect x="1886.5" y="385.5" width="764" height="301" stroke="#156082" stroke-width="6.875" stroke-linecap="butt" stroke-linejoin="miter" stroke-miterlimit="8" stroke-opacity="1" fill="#156082" fill-opacity="1"/><text fill="#FFFFFF" fill-opacity="1" font-family="Aptos,Aptos_MSFontService,sans-serif" font-style="normal" font-variant="normal" font-weight="400" font-stretch="normal" font-size="83" text-anchor="start" direction="ltr" writing-mode="lr-tb" unicode-bidi="normal" text-decoration="none" transform="matrix(1 0 0 1 2098.51 562)">Wohnung</text><rect x="722.5" y="1092.5" width="764" height="301" stroke="#E97132" stroke-width="6.875" stroke-linecap="butt" stroke-linejoin="miter" stroke-miterlimit="8" stroke-opacity="1" fill="#E97132" fill-opacity="1"/><text fill="#FFFFFF" fill-opacity="1" font-family="Aptos,Aptos_MSFontService,sans-serif" font-style="normal" font-variant="normal" font-weight="400" font-stretch="normal" font-size="83" text-anchor="start" direction="ltr" writing-mode="lr-tb" unicode-bidi="normal" text-decoration="none" transform="matrix(1 0 0 1 866.705 1269)">Wohnzimmer</text><rect x="654.5" y="1638.5" width="411" height="301" stroke="#0F9ED5" stroke-width="6.875" stroke-linecap="butt" stroke-linejoin="miter" stroke-miterlimit="8" stroke-opacity="1" fill="#0F9ED5" fill-opacity="1"/><text fill="#FFFFFF" fill-opacity="1" font-family="Aptos,Aptos_MSFontService,sans-serif" font-style="normal" font-variant="normal" font-weight="400" font-stretch="normal" font-size="83" text-anchor="start" direction="ltr" writing-mode="lr-tb" unicode-bidi="normal" text-decoration="none" transform="matrix(1 0 0 1 736.085 1815)">Lampe</text><rect x="1143.5" y="1638.5" width="411" height="301" stroke="#0F9ED5" stroke-width="6.875" stroke-linecap="butt" stroke-linejoin="miter" stroke-miterlimit="8" stroke-opacity="1" fill="#0F9ED5" fill-opacity="1"/><text fill="#FFFFFF" fill-opacity="1" font-family="Aptos,Aptos_MSFontService,sans-serif" font-style="normal" font-variant="normal" font-weight="400" font-stretch="normal" font-size="83" text-anchor="start" direction="ltr" writing-mode="lr-tb" unicode-bidi="normal" text-decoration="none" transform="matrix(1 0 0 1 1251.86 1815)">Temp</text><path d="M1107.46 1393.5 1107.46 1519.57 859.5 1519.57 862.937 1516.14 862.937 1615.85 856.062 1615.85 856.062 1512.7 1104.03 1512.7 1100.59 1516.14 1100.59 1393.5ZM873.25 1611.27 859.5 1638.77 845.75 1611.27Z" fill="#156082" fill-rule="nonzero" fill-opacity="1"/><path d="M0-3.4375 126.073-3.4375 126.073 244.527 122.635 241.089 222.353 241.089 222.353 247.964 119.198 247.964 119.198 0 122.635 3.4375 0 3.4375ZM217.77 230.777 245.27 244.527 217.77 258.277Z" fill="#156082" fill-rule="nonzero" fill-opacity="1" transform="matrix(1.83697e-16 1 1 -1.83697e-16 1104.5 1393.5)"/><rect x="1886.5" y="1092.5" width="764" height="301" stroke="#E97132" stroke-width="6.875" stroke-linecap="butt" stroke-linejoin="miter" stroke-miterlimit="8" stroke-opacity="1" fill="#E97132" fill-opacity="1"/><text fill="#FFFFFF" fill-opacity="1" font-family="Aptos,Aptos_MSFontService,sans-serif" font-style="normal" font-variant="normal" font-weight="400" font-stretch="normal" font-size="83" text-anchor="start" direction="ltr" writing-mode="lr-tb" unicode-bidi="normal" text-decoration="none" transform="matrix(1 0 0 1 2156.25 1269)">Küche</text><rect x="1818.5" y="1638.5" width="410" height="301" stroke="#0F9ED5" stroke-width="6.875" stroke-linecap="butt" stroke-linejoin="miter" stroke-miterlimit="8" stroke-opacity="1" fill="#0F9ED5" fill-opacity="1"/><text fill="#FFFFFF" fill-opacity="1" font-family="Aptos,Aptos_MSFontService,sans-serif" font-style="normal" font-variant="normal" font-weight="400" font-stretch="normal" font-size="83" text-anchor="start" direction="ltr" writing-mode="lr-tb" unicode-bidi="normal" text-decoration="none" transform="matrix(1 0 0 1 1899.71 1815)">Lampe</text><rect x="2307.5" y="1638.5" width="410" height="301" stroke="#0F9ED5" stroke-width="6.875" stroke-linecap="butt" stroke-linejoin="miter" stroke-miterlimit="8" stroke-opacity="1" fill="#0F9ED5" fill-opacity="1"/><text fill="#FFFFFF" fill-opacity="1" font-family="Aptos,Aptos_MSFontService,sans-serif" font-style="normal" font-variant="normal" font-weight="400" font-stretch="normal" font-size="83" text-anchor="start" direction="ltr" writing-mode="lr-tb" unicode-bidi="normal" text-decoration="none" transform="matrix(1 0 0 1 2415.49 1815)">Temp</text><path d="M2271.46 1393.5 2271.46 1519.57 2023.5 1519.57 2026.94 1516.14 2026.94 1615.85 2020.06 1615.85 2020.06 1512.7 2268.03 1512.7 2264.59 1516.14 2264.59 1393.5ZM2037.25 1611.27 2023.5 1638.77 2009.75 1611.27Z" fill="#156082" fill-rule="nonzero" fill-opacity="1"/><path d="M0-3.4375 126.073-3.4375 126.073 244.527 122.635 241.089 222.353 241.089 222.353 247.964 119.198 247.964 119.198 0 122.635 3.4375 0 3.4375ZM217.77 230.777 245.27 244.527 217.77 258.277Z" fill="#156082" fill-rule="nonzero" fill-opacity="1" transform="matrix(1.83697e-16 1 1 -1.83697e-16 2268.5 1393.5)"/><rect x="3024.5" y="1092.5" width="764" height="301" stroke="#E97132" stroke-width="6.875" stroke-linecap="butt" stroke-linejoin="miter" stroke-miterlimit="8" stroke-opacity="1" fill="#E97132" fill-opacity="1"/><text fill="#FFFFFF" fill-opacity="1" font-family="Aptos,Aptos_MSFontService,sans-serif" font-style="normal" font-variant="normal" font-weight="400" font-stretch="normal" font-size="83" text-anchor="start" direction="ltr" writing-mode="lr-tb" unicode-bidi="normal" text-decoration="none" transform="matrix(1 0 0 1 3180.47 1269)">Badezimmer</text><rect x="2956.5" y="1638.5" width="410" height="301" stroke="#0F9ED5" stroke-width="6.875" stroke-linecap="butt" stroke-linejoin="miter" stroke-miterlimit="8" stroke-opacity="1" fill="#0F9ED5" fill-opacity="1"/><text fill="#FFFFFF" fill-opacity="1" font-family="Aptos,Aptos_MSFontService,sans-serif" font-style="normal" font-variant="normal" font-weight="400" font-stretch="normal" font-size="83" text-anchor="start" direction="ltr" writing-mode="lr-tb" unicode-bidi="normal" text-decoration="none" transform="matrix(1 0 0 1 3037.72 1815)">Lampe</text><rect x="3445.5" y="1638.5" width="410" height="301" stroke="#0F9ED5" stroke-width="6.875" stroke-linecap="butt" stroke-linejoin="miter" stroke-miterlimit="8" stroke-opacity="1" fill="#0F9ED5" fill-opacity="1"/><text fill="#FFFFFF" fill-opacity="1" font-family="Aptos,Aptos_MSFontService,sans-serif" font-style="normal" font-variant="normal" font-weight="400" font-stretch="normal" font-size="83" text-anchor="start" direction="ltr" writing-mode="lr-tb" unicode-bidi="normal" text-decoration="none" transform="matrix(1 0 0 1 3553.49 1815)">Temp</text><path d="M3409.46 1393.5 3409.46 1519.57 3161.5 1519.57 3164.94 1516.14 3164.94 1615.85 3158.06 1615.85 3158.06 1512.7 3406.03 1512.7 3402.59 1516.14 3402.59 1393.5ZM3175.25 1611.27 3161.5 1638.77 3147.75 1611.27Z" fill="#156082" fill-rule="nonzero" fill-opacity="1"/><path d="M0-3.4375 126.073-3.4375 126.073 244.527 122.635 241.089 222.353 241.089 222.353 247.964 119.198 247.964 119.198 0 122.635 3.4375 0 3.4375ZM217.77 230.777 245.27 244.527 217.77 258.277Z" fill="#156082" fill-rule="nonzero" fill-opacity="1" transform="matrix(1.83697e-16 1 1 -1.83697e-16 3406.5 1393.5)"/><path d="M2271.57 686.5 2271.57 892.653 1104.5 892.653 1107.94 889.215 1107.94 1069.01 1101.06 1069.01 1101.06 885.778 2268.13 885.778 2264.69 889.215 2264.69 686.5ZM1118.25 1064.43 1104.5 1091.93 1090.75 1064.43Z" fill="#156082" fill-rule="nonzero" fill-opacity="1"/><path d="M2271.94 714.5 2271.94 906.903 2268.5 906.903 2271.94 903.465 2271.94 1069.51 2265.06 1069.51 2265.06 900.028 2268.5 900.028 2265.06 903.465 2265.06 714.5ZM2282.25 1064.93 2268.5 1092.43 2254.75 1064.93Z" fill="#156082" fill-rule="nonzero" fill-opacity="1"/><path d="M0-3.4375 206.153-3.4375 206.153 1138 202.715 1134.56 382.513 1134.56 382.513 1141.44 199.278 1141.44 199.278 0 202.715 3.4375 0 3.4375ZM377.93 1124.25 405.43 1138 377.93 1151.75Z" fill="#156082" fill-rule="nonzero" fill-opacity="1" transform="matrix(1.83697e-16 1 1 -1.83697e-16 2268.5 686.5)"/></g></g></svg>