<svg width="2617" height="848" xmlns="http://www.w3.org/2000/svg" xmlns:xlink="http://www.w3.org/1999/xlink" xml:space="preserve" overflow="hidden"><g transform="translate(-664 -710)"><g><rect x="2334" y="731" width="340" height="79.9998" fill="#BD056D" fill-opacity="1"/><text fill="#FFFFFF" fill-opacity="1" font-family="Aptos,Aptos_MSFontService,sans-serif" font-style="normal" font-variant="normal" font-weight="400" font-stretch="normal" font-size="64" text-anchor="start" direction="ltr" writing-mode="lr-tb" unicode-bidi="normal" text-decoration="none" transform="matrix(1 0 0 1 2419.17 792)">IRQ_A</text><rect x="1728" y="892" width="330" height="80.0001" fill="#39A9DC" fill-opacity="1"/><text fill="#FFFFFF" fill-opacity="1" font-family="Aptos,Aptos_MSFontService,sans-serif" font-style="normal" font-variant="normal" font-weight="400" font-stretch="normal" font-size="64" text-anchor="start" direction="ltr" writing-mode="lr-tb" unicode-bidi="normal" text-decoration="none" transform="matrix(1 0 0 1 1825.57 952)">Main</text><rect x="2096" y="811" width="201" height="81.0001" fill="#BBCC03" fill-opacity="1"/><text fill="#FFFFFF" fill-opacity="1" font-family="Aptos,Aptos_MSFontService,sans-serif" font-style="normal" font-variant="normal" font-weight="400" font-stretch="normal" font-size="50" text-anchor="start" direction="ltr" writing-mode="lr-tb" unicode-bidi="normal" text-decoration="none" transform="matrix(1 0 0 1 2129.39 868)">IRQ_B</text><rect x="2058" y="811" width="37.9998" height="81.0001" fill="#747474" fill-opacity="1"/><rect x="2297" y="731" width="37.0002" height="79.9998" fill="#747474" fill-opacity="1"/><rect x="0" y="0" width="330" height="80.0001" fill="#39A9DC" fill-opacity="1" transform="matrix(-1 0 0 1 3279 892)"/><text fill="#FFFFFF" fill-opacity="1" font-family="Aptos,Aptos_MSFontService,sans-serif" font-style="normal" font-variant="normal" font-weight="400" font-stretch="normal" font-size="64" text-anchor="start" direction="ltr" writing-mode="lr-tb" unicode-bidi="normal" text-decoration="none" transform="matrix(1 0 0 1 3046.35 952)">Main</text><rect x="0" y="0" width="201" height="81.0001" fill="#BBCC03" fill-opacity="1" transform="matrix(-1 0 0 1 2912 811)"/><text fill="#FFFFFF" fill-opacity="1" font-family="Aptos,Aptos_MSFontService,sans-serif" font-style="normal" font-variant="normal" font-weight="400" font-stretch="normal" font-size="50" text-anchor="start" direction="ltr" writing-mode="lr-tb" unicode-bidi="normal" text-decoration="none" transform="matrix(1 0 0 1 2744.83 868)">IRQ_B</text><rect x="0" y="0" width="37.0001" height="81.0001" fill="#747474" fill-opacity="1" transform="matrix(-1 0 0 1 2949 811)"/><rect x="0" y="0" width="37.0001" height="79.9997" fill="#747474" fill-opacity="1" transform="matrix(-1 0 0 1 2711 731)"/><path d="M3.4375-1.73105e-05 3.43775 48.749-3.43725 48.749-3.4375 1.73105e-05ZM13.7502 44.1656 0.000360892 71.6656-13.7498 44.1657Z" fill="#BBCC03" fill-rule="nonzero" fill-opacity="1" transform="matrix(1 0 0 -1 2058.5 1044.17)"/><text fill="#BBCC03" fill-opacity="1" font-family="Aptos,Aptos_MSFontService,sans-serif" font-style="normal" font-variant="normal" font-weight="700" font-stretch="normal" font-size="46" text-anchor="start" direction="ltr" writing-mode="lr-tb" unicode-bidi="normal" text-decoration="none" transform="matrix(1 0 0 1 1996.77 1082)">IRQ_B</text><path d="M3.4375-1.73105e-05 3.43775 48.749-3.43725 48.749-3.4375 1.73105e-05ZM13.7502 44.1656 0.000360892 71.6656-13.7498 44.1657Z" fill="#BD056D" fill-rule="nonzero" fill-opacity="1" transform="matrix(1 0 0 -1 2297.5 959.166)"/><text fill="#BD056D" fill-opacity="1" font-family="Aptos,Aptos_MSFontService,sans-serif" font-style="normal" font-variant="normal" font-weight="700" font-stretch="normal" font-size="46" text-anchor="start" direction="ltr" writing-mode="lr-tb" unicode-bidi="normal" text-decoration="none" transform="matrix(1 0 0 1 2234.87 997)">IRQ_B</text><rect x="1793" y="1325" width="330" height="79.9998" fill="#39A9DC" fill-opacity="1"/><text fill="#FFFFFF" fill-opacity="1" font-family="Aptos,Aptos_MSFontService,sans-serif" font-style="normal" font-variant="normal" font-weight="400" font-stretch="normal" font-size="64" text-anchor="start" direction="ltr" writing-mode="lr-tb" unicode-bidi="normal" text-decoration="none" transform="matrix(1 0 0 1 1889.68 1386)">Main</text><rect x="2164" y="1244" width="340" height="81.0001" fill="#BD056D" fill-opacity="1"/><text fill="#FFFFFF" fill-opacity="1" font-family="Aptos,Aptos_MSFontService,sans-serif" font-style="normal" font-variant="normal" font-weight="400" font-stretch="normal" font-size="64" text-anchor="start" direction="ltr" writing-mode="lr-tb" unicode-bidi="normal" text-decoration="none" transform="matrix(1 0 0 1 2249.11 1305)">IRQ_A</text><rect x="2127" y="1244" width="36.9998" height="81.0001" fill="#747474" fill-opacity="1"/><rect x="2885" y="1325" width="330" height="79.9998" fill="#39A9DC" fill-opacity="1"/><text fill="#FFFFFF" fill-opacity="1" font-family="Aptos,Aptos_MSFontService,sans-serif" font-style="normal" font-variant="normal" font-weight="400" font-stretch="normal" font-size="64" text-anchor="start" direction="ltr" writing-mode="lr-tb" unicode-bidi="normal" text-decoration="none" transform="matrix(1 0 0 1 2982.25 1386)">Main</text><rect x="2504" y="1244" width="340" height="81.0001" fill="#BBCC03" fill-opacity="1"/><text fill="#FFFFFF" fill-opacity="1" font-family="Aptos,Aptos_MSFontService,sans-serif" font-style="normal" font-variant="normal" font-weight="400" font-stretch="normal" font-size="64" text-anchor="start" direction="ltr" writing-mode="lr-tb" unicode-bidi="normal" text-decoration="none" transform="matrix(1 0 0 1 2588.65 1305)">IRQ_B</text><rect x="2844" y="1244" width="37.0002" height="81.0001" fill="#747474" fill-opacity="1"/><path d="M3.4375-1.73105e-05 3.43775 48.749-3.43725 48.749-3.4375 1.73105e-05ZM13.7502 44.1656 0.000360892 71.6656-13.7498 44.1657Z" fill="#BD056D" fill-rule="nonzero" fill-opacity="1" transform="matrix(1 0 0 -1 2121.5 1476.17)"/><text fill="#BD056D" fill-opacity="1" font-family="Aptos,Aptos_MSFontService,sans-serif" font-style="normal" font-variant="normal" font-weight="700" font-stretch="normal" font-size="46" text-anchor="start" direction="ltr" writing-mode="lr-tb" unicode-bidi="normal" text-decoration="none" transform="matrix(1 0 0 1 2059.46 1514)">IRQ_B</text><path d="M3.4375-1.73105e-05 3.43775 48.749-3.43725 48.749-3.4375 1.73105e-05ZM13.7502 44.1656 0.000360892 71.6656-13.7498 44.1657Z" fill="#BBCC03" fill-rule="nonzero" fill-opacity="1" transform="matrix(1 0 0 -1 2376.5 1404.17)"/><text fill="#BBCC03" fill-opacity="1" font-family="Aptos,Aptos_MSFontService,sans-serif" font-style="normal" font-variant="normal" font-weight="700" font-stretch="normal" font-size="46" text-anchor="start" direction="ltr" writing-mode="lr-tb" unicode-bidi="normal" text-decoration="none" transform="matrix(1 0 0 1 2314.44 1442)">IRQ_B</text><path d="M668.084 1007.85 1130.08 1007.85 1130.08 1101.35 668.084 1101.35Z" fill="#E97132" fill-rule="evenodd" fill-opacity="1"/><path d="M1130.08 1007.85 1592.09 1007.85 1592.09 1101.35 1130.08 1101.35Z" fill="#E97132" fill-rule="evenodd" fill-opacity="1"/><path d="M665.793 1101.35 1594.38 1101.35" stroke="#E97132" stroke-width="4.58333" stroke-linecap="butt" stroke-linejoin="miter" stroke-miterlimit="8" stroke-opacity="1" fill="none" fill-rule="evenodd"/><path d="M665.793 1194.85 1594.38 1194.85" stroke="#E97132" stroke-width="4.58333" stroke-linecap="butt" stroke-linejoin="miter" stroke-miterlimit="8" stroke-opacity="1" fill="none" fill-rule="evenodd"/><path d="M668.084 1005.56 668.084 1290.64" stroke="#E97132" stroke-width="4.58333" stroke-linecap="butt" stroke-linejoin="miter" stroke-miterlimit="8" stroke-opacity="1" fill="none" fill-rule="evenodd"/><path d="M1592.09 1005.56 1592.09 1290.64" stroke="#E97132" stroke-width="4.58333" stroke-linecap="butt" stroke-linejoin="miter" stroke-miterlimit="8" stroke-opacity="1" fill="none" fill-rule="evenodd"/><path d="M665.793 1007.85 1594.38 1007.85" stroke="#E97132" stroke-width="4.58333" stroke-linecap="butt" stroke-linejoin="miter" stroke-miterlimit="8" stroke-opacity="1" fill="none" fill-rule="evenodd"/><path d="M665.793 1288.35 1594.38 1288.35" stroke="#E97132" stroke-width="4.58333" stroke-linecap="butt" stroke-linejoin="miter" stroke-miterlimit="8" stroke-opacity="1" fill="none" fill-rule="evenodd"/><text fill="#FFFFFF" fill-opacity="1" font-family="Aptos,Aptos_MSFontService,sans-serif" font-style="normal" font-variant="normal" font-weight="700" font-stretch="normal" font-size="50" text-anchor="start" direction="ltr" writing-mode="lr-tb" unicode-bidi="normal" text-decoration="none" transform="matrix(1 0 0 1 1163.08 1071)">Prioritäten Level</text><text fill="#FFFFFF" fill-opacity="1" font-family="Aptos,Aptos_MSFontService,sans-serif" font-style="normal" font-variant="normal" font-weight="700" font-stretch="normal" font-size="50" text-anchor="start" direction="ltr" writing-mode="lr-tb" unicode-bidi="normal" text-decoration="none" transform="matrix(1 0 0 1 701.084 1071)">Interrupt Quelle</text><text fill="#000000" fill-opacity="1" font-family="Aptos,Aptos_MSFontService,sans-serif" font-style="normal" font-variant="normal" font-weight="400" font-stretch="normal" font-size="50" text-anchor="start" direction="ltr" writing-mode="lr-tb" unicode-bidi="normal" text-decoration="none" transform="matrix(1 0 0 1 1163.08 1165)">0</text><text fill="#000000" fill-opacity="1" font-family="Aptos,Aptos_MSFontService,sans-serif" font-style="normal" font-variant="normal" font-weight="400" font-stretch="normal" font-size="50" text-anchor="start" direction="ltr" writing-mode="lr-tb" unicode-bidi="normal" text-decoration="none" transform="matrix(1 0 0 1 701.084 1165)">IRQ_A</text><text fill="#000000" fill-opacity="1" font-family="Aptos,Aptos_MSFontService,sans-serif" font-style="normal" font-variant="normal" font-weight="400" font-stretch="normal" font-size="50" text-anchor="start" direction="ltr" writing-mode="lr-tb" unicode-bidi="normal" text-decoration="none" transform="matrix(1 0 0 1 1163.08 1258)">1</text><text fill="#000000" fill-opacity="1" font-family="Aptos,Aptos_MSFontService,sans-serif" font-style="normal" font-variant="normal" font-weight="400" font-stretch="normal" font-size="50" text-anchor="start" direction="ltr" writing-mode="lr-tb" unicode-bidi="normal" text-decoration="none" transform="matrix(1 0 0 1 701.084 1258)">IRQ_B</text></g></g></svg>