<svg width="4734" height="1247" xmlns="http://www.w3.org/2000/svg" xmlns:xlink="http://www.w3.org/1999/xlink" xml:space="preserve" overflow="hidden"><g transform="translate(87 -146)"><g><path d="M352.5 1314.51 4535.45 1314.51 4535.45 1278.5 4637.5 1330.5 4535.45 1382.5 4535.45 1346.49 352.5 1346.49Z" stroke="#000000" stroke-width="6.875" stroke-linecap="butt" stroke-linejoin="miter" stroke-miterlimit="8" stroke-opacity="1" fill="#000000" fill-rule="evenodd" fill-opacity="1"/><path d="M477 569 4637.18 574.491" stroke="#FF686F" stroke-width="13.75" stroke-linecap="butt" stroke-linejoin="miter" stroke-miterlimit="8" stroke-opacity="1" fill="none" fill-rule="evenodd"/><text fill="#FF686F" fill-opacity="1" font-family="Aptos,Aptos_MSFontService,sans-serif" font-style="normal" font-variant="normal" font-weight="700" font-stretch="normal" font-size="64" text-anchor="start" direction="ltr" writing-mode="lr-tb" unicode-bidi="normal" text-decoration="none" transform="matrix(1 0 0 1 26.1447 473)">Schwellenwert </text><text fill="#FF686F" fill-opacity="1" font-family="Aptos,Aptos_MSFontService,sans-serif" font-style="normal" font-variant="normal" font-weight="700" font-stretch="normal" font-size="64" text-anchor="start" direction="ltr" writing-mode="lr-tb" unicode-bidi="normal" text-decoration="none" transform="matrix(1 0 0 1 42.6217 550)">erreicht (ARR)</text><text fill="#FF686F" fill-opacity="1" font-family="Aptos,Aptos_MSFontService,sans-serif" font-style="normal" font-variant="normal" font-weight="700" font-stretch="normal" font-size="64" text-anchor="start" direction="ltr" writing-mode="lr-tb" unicode-bidi="normal" text-decoration="none" transform="matrix(1 0 0 1 65.7447 627)">→ löse </text><text fill="#FF686F" fill-opacity="1" font-family="Aptos,Aptos_MSFontService,sans-serif" font-style="normal" font-variant="normal" font-weight="700" font-stretch="normal" font-size="64" text-anchor="start" direction="ltr" writing-mode="lr-tb" unicode-bidi="normal" text-decoration="none" transform="matrix(1 0 0 1 254.807 627)">Timer</text><text fill="#FF686F" fill-opacity="1" font-family="Aptos,Aptos_MSFontService,sans-serif" font-style="normal" font-variant="normal" font-weight="700" font-stretch="normal" font-size="64" text-anchor="start" direction="ltr" writing-mode="lr-tb" unicode-bidi="normal" text-decoration="none" transform="matrix(1 0 0 1 54.1718 704)">Interrupt aus</text><path d="M0 29.1321 269.972 29.1321 269.972 0 348 38.5 269.972 77 269.972 47.8679 0 47.8679Z" stroke="#E97132" stroke-width="6.875" stroke-linecap="butt" stroke-linejoin="miter" stroke-miterlimit="8" stroke-opacity="1" fill="#E97132" fill-rule="evenodd" fill-opacity="1" transform="matrix(-1.83697e-16 -1 -1 1.83697e-16 477.5 1373.5)"/><rect x="568.5" y="1197.5" width="39.9999" height="80.9998" stroke="#215F9A" stroke-width="6.875" stroke-linecap="butt" stroke-linejoin="miter" stroke-miterlimit="8" stroke-opacity="1" fill="#215F9A" fill-opacity="1"/><rect x="634.5" y="1114.5" width="39.9999" height="164" stroke="#215F9A" stroke-width="6.875" stroke-linecap="butt" stroke-linejoin="miter" stroke-miterlimit="8" stroke-opacity="1" fill="#215F9A" fill-opacity="1"/><rect x="699.5" y="1025.5" width="39.9999" height="253" stroke="#215F9A" stroke-width="6.875" stroke-linecap="butt" stroke-linejoin="miter" stroke-miterlimit="8" stroke-opacity="1" fill="#215F9A" fill-opacity="1"/><rect x="765.5" y="937.5" width="39.9999" height="341" stroke="#215F9A" stroke-width="6.875" stroke-linecap="butt" stroke-linejoin="miter" stroke-miterlimit="8" stroke-opacity="1" fill="#215F9A" fill-opacity="1"/><rect x="830.5" y="846.5" width="39.9999" height="432" stroke="#215F9A" stroke-width="6.875" stroke-linecap="butt" stroke-linejoin="miter" stroke-miterlimit="8" stroke-opacity="1" fill="#215F9A" fill-opacity="1"/><rect x="896.5" y="763.5" width="39.9999" height="515" stroke="#215F9A" stroke-width="6.875" stroke-linecap="butt" stroke-linejoin="miter" stroke-miterlimit="8" stroke-opacity="1" fill="#215F9A" fill-opacity="1"/><rect x="961.5" y="673.5" width="39.9999" height="605" stroke="#215F9A" stroke-width="6.875" stroke-linecap="butt" stroke-linejoin="miter" stroke-miterlimit="8" stroke-opacity="1" fill="#215F9A" fill-opacity="1"/><rect x="1027.5" y="584.5" width="39.9999" height="694" stroke="#215F9A" stroke-width="6.875" stroke-linecap="butt" stroke-linejoin="miter" stroke-miterlimit="8" stroke-opacity="1" fill="#215F9A" fill-opacity="1"/><path d="M5.49766-4.12812 442.306 577.596 431.311 585.852-5.49766 4.12812ZM449.174 563.842 457.449 609.212 416.188 588.611Z" fill="#0F9ED5" fill-rule="nonzero" fill-opacity="1" transform="matrix(1 0 0 -1 562 1184.21)"/><g><g><g><path d="M86.0849 202.931 164.772 67.4444C166.553 64.3768 164.027 60.602 160.511 61.0801L108.171 68.1942 120.677 2.53885C121.098 0.325524 118.245-0.942704 116.885 0.853056L39.5183 102.977C37.2647 105.951 39.6509 110.18 43.362 109.79L101.067 103.716 82.1495 201.456C81.6933 203.813 84.8788 205.007 86.0849 202.931Z" fill="#FFDC64" fill-rule="nonzero" fill-opacity="1" transform="matrix(1 0 0 1.0049 945 340)"/><path d="M63.7122 95.7394C62.2671 95.855 61.3072 94.2752 62.0754 93.046L119.92 0.494461C119.06-0.186469 117.705-0.230297 116.885 0.852657L39.5183 102.976C37.2647 105.951 39.6509 110.18 43.362 109.79L101.067 103.715 82.1495 201.455C81.8945 202.774 82.7838 203.701 83.8234 203.923L116.24 101.347C117.76 96.5387 113.926 91.722 108.899 92.1244L63.7122 95.7394Z" fill="#FFC850" fill-rule="nonzero" fill-opacity="1" transform="matrix(1 0 0 1.0049 945 340)"/></g></g></g><text fill="#000000" fill-opacity="1" font-family="Aptos,Aptos_MSFontService,sans-serif" font-style="normal" font-variant="normal" font-weight="400" font-stretch="normal" font-size="64" text-anchor="start" direction="ltr" writing-mode="lr-tb" unicode-bidi="normal" text-decoration="none" transform="matrix(1 0 0 1 988.814 227)">Timer</text><text fill="#000000" fill-opacity="1" font-family="Aptos,Aptos_MSFontService,sans-serif" font-style="normal" font-variant="normal" font-weight="400" font-stretch="normal" font-size="64" text-anchor="start" direction="ltr" writing-mode="lr-tb" unicode-bidi="normal" text-decoration="none" transform="matrix(1 0 0 1 946.28 304)">Interrupt</text><text fill="#0E9ED5" fill-opacity="1" font-family="Aptos,Aptos_MSFontService,sans-serif" font-style="normal" font-variant="normal" font-weight="700" font-stretch="normal" font-size="64" text-anchor="start" direction="ltr" writing-mode="lr-tb" unicode-bidi="normal" text-decoration="none" transform="matrix(0.611104 -0.791551 0.791551 0.611104 663.905 999)">Hochzählen</text><path d="M0 29.1321 269.972 29.1321 269.972 0 348 38.5 269.972 77 269.972 47.8679 0 47.8679Z" stroke="#E97132" stroke-width="6.875" stroke-linecap="butt" stroke-linejoin="miter" stroke-miterlimit="8" stroke-opacity="1" fill="#E97132" fill-rule="evenodd" fill-opacity="1" transform="matrix(-1.83697e-16 -1 -1 1.83697e-16 1306.5 1373.5)"/><rect x="1397.5" y="1197.5" width="40.0002" height="80.9998" stroke="#215F9A" stroke-width="6.875" stroke-linecap="butt" stroke-linejoin="miter" stroke-miterlimit="8" stroke-opacity="1" fill="#215F9A" fill-opacity="1"/><rect x="1463.5" y="1114.5" width="40.0002" height="164" stroke="#215F9A" stroke-width="6.875" stroke-linecap="butt" stroke-linejoin="miter" stroke-miterlimit="8" stroke-opacity="1" fill="#215F9A" fill-opacity="1"/><rect x="1529.5" y="1025.5" width="40.0002" height="253" stroke="#215F9A" stroke-width="6.875" stroke-linecap="butt" stroke-linejoin="miter" stroke-miterlimit="8" stroke-opacity="1" fill="#215F9A" fill-opacity="1"/><rect x="1594.5" y="937.5" width="39.9999" height="341" stroke="#215F9A" stroke-width="6.875" stroke-linecap="butt" stroke-linejoin="miter" stroke-miterlimit="8" stroke-opacity="1" fill="#215F9A" fill-opacity="1"/><rect x="1660.5" y="846.5" width="39.9999" height="432" stroke="#215F9A" stroke-width="6.875" stroke-linecap="butt" stroke-linejoin="miter" stroke-miterlimit="8" stroke-opacity="1" fill="#215F9A" fill-opacity="1"/><rect x="1725.5" y="763.5" width="39.9999" height="515" stroke="#215F9A" stroke-width="6.875" stroke-linecap="butt" stroke-linejoin="miter" stroke-miterlimit="8" stroke-opacity="1" fill="#215F9A" fill-opacity="1"/><rect x="1791.5" y="673.5" width="39.9999" height="605" stroke="#215F9A" stroke-width="6.875" stroke-linecap="butt" stroke-linejoin="miter" stroke-miterlimit="8" stroke-opacity="1" fill="#215F9A" fill-opacity="1"/><rect x="1856.5" y="584.5" width="39.9999" height="694" stroke="#215F9A" stroke-width="6.875" stroke-linecap="butt" stroke-linejoin="miter" stroke-miterlimit="8" stroke-opacity="1" fill="#215F9A" fill-opacity="1"/><path d="M5.49766-4.12812 442.306 577.596 431.311 585.852-5.49766 4.12812ZM449.174 563.842 457.449 609.212 416.188 588.611Z" fill="#0F9ED5" fill-rule="nonzero" fill-opacity="1" transform="matrix(1 0 0 -1 1392 1184.21)"/><g><g><g><path d="M1860.51 543.925 1939.58 407.775C1941.37 404.692 1938.83 400.899 1935.3 401.379L1882.7 408.528 1895.27 342.551C1895.69 340.327 1892.82 339.053 1891.46 340.857L1813.71 443.481C1811.45 446.47 1813.85 450.72 1817.57 450.328L1875.56 444.224 1856.55 542.443C1856.09 544.812 1859.29 546.012 1860.51 543.925Z" fill="#FFDC64" fill-rule="nonzero" fill-opacity="1"/><path d="M1838.02 436.209C1836.57 436.325 1835.61 434.737 1836.38 433.502L1894.51 340.497C1893.64 339.813 1892.28 339.769 1891.46 340.857L1813.71 443.481C1811.45 446.47 1813.85 450.72 1817.57 450.328L1875.56 444.224 1856.55 542.443C1856.3 543.767 1857.19 544.7 1858.23 544.923L1890.81 441.843C1892.34 437.012 1888.48 432.171 1883.43 432.576L1838.02 436.209Z" fill="#FFC850" fill-rule="nonzero" fill-opacity="1"/></g></g></g><text fill="#000000" fill-opacity="1" font-family="Aptos,Aptos_MSFontService,sans-serif" font-style="normal" font-variant="normal" font-weight="400" font-stretch="normal" font-size="64" text-anchor="start" direction="ltr" writing-mode="lr-tb" unicode-bidi="normal" text-decoration="none" transform="matrix(1 0 0 1 1818.17 227)">Timer</text><text fill="#000000" fill-opacity="1" font-family="Aptos,Aptos_MSFontService,sans-serif" font-style="normal" font-variant="normal" font-weight="400" font-stretch="normal" font-size="64" text-anchor="start" direction="ltr" writing-mode="lr-tb" unicode-bidi="normal" text-decoration="none" transform="matrix(1 0 0 1 1775.63 304)">Interrupt</text><text fill="#0E9ED5" fill-opacity="1" font-family="Aptos,Aptos_MSFontService,sans-serif" font-style="normal" font-variant="normal" font-weight="700" font-stretch="normal" font-size="64" text-anchor="start" direction="ltr" writing-mode="lr-tb" unicode-bidi="normal" text-decoration="none" transform="matrix(0.611104 -0.791551 0.791551 0.611104 1493.26 999)">Hochzählen</text><path d="M0 29.1321 269.972 29.1321 269.972 0 348 38.5 269.972 77 269.972 47.8679 0 47.8679Z" stroke="#E97132" stroke-width="6.875" stroke-linecap="butt" stroke-linejoin="miter" stroke-miterlimit="8" stroke-opacity="1" fill="#E97132" fill-rule="evenodd" fill-opacity="1" transform="matrix(-1.83697e-16 -1 -1 1.83697e-16 2965.5 1373.5)"/><rect x="3056.5" y="1197.5" width="39.9998" height="80.9998" stroke="#215F9A" stroke-width="6.875" stroke-linecap="butt" stroke-linejoin="miter" stroke-miterlimit="8" stroke-opacity="1" fill="#215F9A" fill-opacity="1"/><rect x="3122.5" y="1114.5" width="39.9998" height="164" stroke="#215F9A" stroke-width="6.875" stroke-linecap="butt" stroke-linejoin="miter" stroke-miterlimit="8" stroke-opacity="1" fill="#215F9A" fill-opacity="1"/><rect x="3187.5" y="1025.5" width="39.9998" height="253" stroke="#215F9A" stroke-width="6.875" stroke-linecap="butt" stroke-linejoin="miter" stroke-miterlimit="8" stroke-opacity="1" fill="#215F9A" fill-opacity="1"/><rect x="3253.5" y="937.5" width="39.9998" height="341" stroke="#215F9A" stroke-width="6.875" stroke-linecap="butt" stroke-linejoin="miter" stroke-miterlimit="8" stroke-opacity="1" fill="#215F9A" fill-opacity="1"/><rect x="3318.5" y="846.5" width="39.9998" height="432" stroke="#215F9A" stroke-width="6.875" stroke-linecap="butt" stroke-linejoin="miter" stroke-miterlimit="8" stroke-opacity="1" fill="#215F9A" fill-opacity="1"/><rect x="3384.5" y="763.5" width="39.9998" height="515" stroke="#215F9A" stroke-width="6.875" stroke-linecap="butt" stroke-linejoin="miter" stroke-miterlimit="8" stroke-opacity="1" fill="#215F9A" fill-opacity="1"/><rect x="3450.5" y="673.5" width="39.9998" height="605" stroke="#215F9A" stroke-width="6.875" stroke-linecap="butt" stroke-linejoin="miter" stroke-miterlimit="8" stroke-opacity="1" fill="#215F9A" fill-opacity="1"/><rect x="3515.5" y="584.5" width="39.9998" height="694" stroke="#215F9A" stroke-width="6.875" stroke-linecap="butt" stroke-linejoin="miter" stroke-miterlimit="8" stroke-opacity="1" fill="#215F9A" fill-opacity="1"/><path d="M5.49766-4.12812 442.306 577.596 431.311 585.852-5.49766 4.12812ZM449.174 563.842 457.449 609.212 416.188 588.611Z" fill="#0F9ED5" fill-rule="nonzero" fill-opacity="1" transform="matrix(1 0 0 -1 3050 1184.21)"/><g><g><g><path d="M86.0847 202.93 164.771 67.4443C166.553 64.3767 164.026 60.6019 160.511 61.08L108.171 68.1941 120.677 2.53884C121.098 0.325523 118.245-0.942702 116.884 0.853054L39.5182 102.976C37.2646 105.951 39.6509 110.18 43.3619 109.79L101.067 103.716 82.1494 201.455C81.6932 203.813 84.8787 205.007 86.0847 202.93Z" fill="#FFDC64" fill-rule="nonzero" fill-opacity="1" transform="matrix(1 0 0 1.0049 3433 340)"/><path d="M63.7121 95.7393C62.267 95.8548 61.3071 94.275 62.0753 93.0458L119.92 0.494461C119.059-0.186469 117.705-0.230297 116.884 0.852656L39.5182 102.976C37.2646 105.951 39.6509 110.18 43.3619 109.789L101.067 103.715 82.1494 201.455C81.8944 202.773 82.7837 203.701 83.8232 203.923L116.24 101.346C117.759 96.5385 113.926 91.7218 108.899 92.1243L63.7121 95.7393Z" fill="#FFC850" fill-rule="nonzero" fill-opacity="1" transform="matrix(1 0 0 1.0049 3433 340)"/></g></g></g><text fill="#000000" fill-opacity="1" font-family="Aptos,Aptos_MSFontService,sans-serif" font-style="normal" font-variant="normal" font-weight="400" font-stretch="normal" font-size="64" text-anchor="start" direction="ltr" writing-mode="lr-tb" unicode-bidi="normal" text-decoration="none" transform="matrix(1 0 0 1 3476.87 227)">Timer</text><text fill="#000000" fill-opacity="1" font-family="Aptos,Aptos_MSFontService,sans-serif" font-style="normal" font-variant="normal" font-weight="400" font-stretch="normal" font-size="64" text-anchor="start" direction="ltr" writing-mode="lr-tb" unicode-bidi="normal" text-decoration="none" transform="matrix(1 0 0 1 3434.34 304)">Interrupt</text><text fill="#0E9ED5" fill-opacity="1" font-family="Aptos,Aptos_MSFontService,sans-serif" font-style="normal" font-variant="normal" font-weight="700" font-stretch="normal" font-size="64" text-anchor="start" direction="ltr" writing-mode="lr-tb" unicode-bidi="normal" text-decoration="none" transform="matrix(0.611104 -0.791551 0.791551 0.611104 3151.96 999)">Hochzählen</text><path d="M0 29.5105 268.958 29.5105 268.958 0 348 39.0002 268.958 78 268.958 48.4896 0 48.4896Z" stroke="#E97132" stroke-width="6.875" stroke-linecap="butt" stroke-linejoin="miter" stroke-miterlimit="8" stroke-opacity="1" fill="#E97132" fill-rule="evenodd" fill-opacity="1" transform="matrix(-1.83697e-16 -1 -1 1.83697e-16 2136.5 1373.5)"/><rect x="2227.5" y="1197.5" width="39.9998" height="80.9998" stroke="#215F9A" stroke-width="6.875" stroke-linecap="butt" stroke-linejoin="miter" stroke-miterlimit="8" stroke-opacity="1" fill="#215F9A" fill-opacity="1"/><rect x="2292.5" y="1114.5" width="39.9998" height="164" stroke="#215F9A" stroke-width="6.875" stroke-linecap="butt" stroke-linejoin="miter" stroke-miterlimit="8" stroke-opacity="1" fill="#215F9A" fill-opacity="1"/><rect x="2358.5" y="1025.5" width="39.9998" height="253" stroke="#215F9A" stroke-width="6.875" stroke-linecap="butt" stroke-linejoin="miter" stroke-miterlimit="8" stroke-opacity="1" fill="#215F9A" fill-opacity="1"/><rect x="2423.5" y="937.5" width="40.0002" height="341" stroke="#215F9A" stroke-width="6.875" stroke-linecap="butt" stroke-linejoin="miter" stroke-miterlimit="8" stroke-opacity="1" fill="#215F9A" fill-opacity="1"/><rect x="2489.5" y="846.5" width="40.0002" height="432" stroke="#215F9A" stroke-width="6.875" stroke-linecap="butt" stroke-linejoin="miter" stroke-miterlimit="8" stroke-opacity="1" fill="#215F9A" fill-opacity="1"/><rect x="2555.5" y="763.5" width="40.0002" height="515" stroke="#215F9A" stroke-width="6.875" stroke-linecap="butt" stroke-linejoin="miter" stroke-miterlimit="8" stroke-opacity="1" fill="#215F9A" fill-opacity="1"/><rect x="2620.5" y="673.5" width="40.0002" height="605" stroke="#215F9A" stroke-width="6.875" stroke-linecap="butt" stroke-linejoin="miter" stroke-miterlimit="8" stroke-opacity="1" fill="#215F9A" fill-opacity="1"/><rect x="2686.5" y="584.5" width="40.0002" height="694" stroke="#215F9A" stroke-width="6.875" stroke-linecap="butt" stroke-linejoin="miter" stroke-miterlimit="8" stroke-opacity="1" fill="#215F9A" fill-opacity="1"/><path d="M5.49766-4.12812 442.306 577.596 431.311 585.852-5.49766 4.12812ZM449.174 563.842 457.449 609.212 416.188 588.611Z" fill="#0F9ED5" fill-rule="nonzero" fill-opacity="1" transform="matrix(1 0 0 -1 2221 1184.21)"/><g><g><g><path d="M2689.51 543.925 2768.58 407.775C2770.37 404.692 2767.83 400.899 2764.3 401.379L2711.7 408.528 2724.27 342.551C2724.69 340.327 2721.82 339.053 2720.46 340.857L2642.71 443.481C2640.45 446.47 2642.84 450.72 2646.57 450.328L2704.56 444.224 2685.55 542.443C2685.09 544.812 2688.29 546.012 2689.51 543.925Z" fill="#FFDC64" fill-rule="nonzero" fill-opacity="1"/><path d="M2667.02 436.209C2665.57 436.325 2664.61 434.737 2665.38 433.502L2723.51 340.497C2722.64 339.813 2721.28 339.769 2720.46 340.857L2642.71 443.481C2640.45 446.47 2642.84 450.72 2646.57 450.328L2704.56 444.224 2685.55 542.443C2685.3 543.767 2686.19 544.7 2687.23 544.923L2719.81 441.843C2721.34 437.012 2717.48 432.171 2712.43 432.576L2667.02 436.209Z" fill="#FFC850" fill-rule="nonzero" fill-opacity="1"/></g></g></g><text fill="#000000" fill-opacity="1" font-family="Aptos,Aptos_MSFontService,sans-serif" font-style="normal" font-variant="normal" font-weight="400" font-stretch="normal" font-size="64" text-anchor="start" direction="ltr" writing-mode="lr-tb" unicode-bidi="normal" text-decoration="none" transform="matrix(1 0 0 1 2647.52 227)">Timer</text><text fill="#000000" fill-opacity="1" font-family="Aptos,Aptos_MSFontService,sans-serif" font-style="normal" font-variant="normal" font-weight="400" font-stretch="normal" font-size="64" text-anchor="start" direction="ltr" writing-mode="lr-tb" unicode-bidi="normal" text-decoration="none" transform="matrix(1 0 0 1 2604.99 304)">Interrupt</text><text fill="#0E9ED5" fill-opacity="1" font-family="Aptos,Aptos_MSFontService,sans-serif" font-style="normal" font-variant="normal" font-weight="700" font-stretch="normal" font-size="64" text-anchor="start" direction="ltr" writing-mode="lr-tb" unicode-bidi="normal" text-decoration="none" transform="matrix(0.611104 -0.791551 0.791551 0.611104 2322.61 999)">Hochzählen</text><path d="M0 29.1321 269.972 29.1321 269.972 0 348 38.5 269.972 77 269.972 47.8679 0 47.8679Z" stroke="#E97132" stroke-width="6.875" stroke-linecap="butt" stroke-linejoin="miter" stroke-miterlimit="8" stroke-opacity="1" fill="#E97132" fill-rule="evenodd" fill-opacity="1" transform="matrix(-1.83697e-16 -1 -1 1.83697e-16 3794.5 1373.5)"/><rect x="3885.5" y="1197.5" width="40.0002" height="80.9998" stroke="#215F9A" stroke-width="6.875" stroke-linecap="butt" stroke-linejoin="miter" stroke-miterlimit="8" stroke-opacity="1" fill="#215F9A" fill-opacity="1"/><rect x="3951.5" y="1114.5" width="40.0002" height="164" stroke="#215F9A" stroke-width="6.875" stroke-linecap="butt" stroke-linejoin="miter" stroke-miterlimit="8" stroke-opacity="1" fill="#215F9A" fill-opacity="1"/><rect x="4017.5" y="1025.5" width="40.0002" height="253" stroke="#215F9A" stroke-width="6.875" stroke-linecap="butt" stroke-linejoin="miter" stroke-miterlimit="8" stroke-opacity="1" fill="#215F9A" fill-opacity="1"/><rect x="4082.5" y="937.5" width="40.0002" height="341" stroke="#215F9A" stroke-width="6.875" stroke-linecap="butt" stroke-linejoin="miter" stroke-miterlimit="8" stroke-opacity="1" fill="#215F9A" fill-opacity="1"/><rect x="4148.5" y="846.5" width="40" height="432" stroke="#215F9A" stroke-width="6.875" stroke-linecap="butt" stroke-linejoin="miter" stroke-miterlimit="8" stroke-opacity="1" fill="#215F9A" fill-opacity="1"/><rect x="4213.5" y="763.5" width="40" height="515" stroke="#215F9A" stroke-width="6.875" stroke-linecap="butt" stroke-linejoin="miter" stroke-miterlimit="8" stroke-opacity="1" fill="#215F9A" fill-opacity="1"/><rect x="4279.5" y="673.5" width="40" height="605" stroke="#215F9A" stroke-width="6.875" stroke-linecap="butt" stroke-linejoin="miter" stroke-miterlimit="8" stroke-opacity="1" fill="#215F9A" fill-opacity="1"/><rect x="4344.5" y="584.5" width="40" height="694" stroke="#215F9A" stroke-width="6.875" stroke-linecap="butt" stroke-linejoin="miter" stroke-miterlimit="8" stroke-opacity="1" fill="#215F9A" fill-opacity="1"/><path d="M5.49766-4.12812 442.306 577.596 431.311 585.852-5.49766 4.12812ZM449.174 563.842 457.449 609.212 416.188 588.611Z" fill="#0F9ED5" fill-rule="nonzero" fill-opacity="1" transform="matrix(1 0 0 -1 3880 1184.21)"/><g><g><g><path d="M4348.51 543.925 4427.58 407.775C4429.37 404.692 4426.83 400.899 4423.3 401.379L4370.7 408.528 4383.27 342.551C4383.69 340.327 4380.82 339.053 4379.46 340.857L4301.71 443.481C4299.45 446.47 4301.85 450.72 4305.57 450.328L4363.56 444.224 4344.55 542.443C4344.09 544.812 4347.29 546.012 4348.51 543.925Z" fill="#FFDC64" fill-rule="nonzero" fill-opacity="1"/><path d="M4326.02 436.209C4324.57 436.325 4323.61 434.737 4324.38 433.502L4382.51 340.497C4381.64 339.813 4380.28 339.769 4379.46 340.857L4301.71 443.481C4299.45 446.47 4301.85 450.72 4305.57 450.328L4363.56 444.224 4344.55 542.443C4344.3 543.767 4345.19 544.7 4346.23 544.923L4378.81 441.843C4380.34 437.012 4376.48 432.171 4371.43 432.576L4326.02 436.209Z" fill="#FFC850" fill-rule="nonzero" fill-opacity="1"/></g></g></g><text fill="#000000" fill-opacity="1" font-family="Aptos,Aptos_MSFontService,sans-serif" font-style="normal" font-variant="normal" font-weight="400" font-stretch="normal" font-size="64" text-anchor="start" direction="ltr" writing-mode="lr-tb" unicode-bidi="normal" text-decoration="none" transform="matrix(1 0 0 1 4306.23 227)">Timer</text><text fill="#000000" fill-opacity="1" font-family="Aptos,Aptos_MSFontService,sans-serif" font-style="normal" font-variant="normal" font-weight="400" font-stretch="normal" font-size="64" text-anchor="start" direction="ltr" writing-mode="lr-tb" unicode-bidi="normal" text-decoration="none" transform="matrix(1 0 0 1 4263.69 304)">Interrupt</text><text fill="#0E9ED5" fill-opacity="1" font-family="Aptos,Aptos_MSFontService,sans-serif" font-style="normal" font-variant="normal" font-weight="700" font-stretch="normal" font-size="64" text-anchor="start" direction="ltr" writing-mode="lr-tb" unicode-bidi="normal" text-decoration="none" transform="matrix(0.611104 -0.791551 0.791551 0.611104 3981.32 999)">Hochzählen</text></g></g></svg>