<svg width="2420" height="2227" xmlns="http://www.w3.org/2000/svg" xmlns:xlink="http://www.w3.org/1999/xlink" xml:space="preserve" overflow="hidden"><g transform="translate(-1040 -142)"><g><path d="M1114.5 2285.04 3329.89 2285.04 3329.89 2307.96 1114.5 2307.96ZM3318.43 2262.13 3387.18 2296.5 3318.43 2330.88Z" fill="#404040" fill-rule="nonzero" fill-opacity="1"/><path d="M1632.5 1344.5C1632.5 1314.12 1657.12 1289.5 1687.5 1289.5 1717.88 1289.5 1742.5 1314.12 1742.5 1344.5 1742.5 1374.88 1717.88 1399.5 1687.5 1399.5 1657.12 1399.5 1632.5 1374.88 1632.5 1344.5Z" stroke="#595959" stroke-width="6.875" stroke-linecap="butt" stroke-linejoin="miter" stroke-miterlimit="8" stroke-opacity="1" fill="#595959" fill-rule="evenodd" fill-opacity="1"/><path d="M2759.5 1903.5C2759.5 1873.12 2784.12 1848.5 2814.5 1848.5 2844.88 1848.5 2869.5 1873.12 2869.5 1903.5 2869.5 1933.88 2844.88 1958.5 2814.5 1958.5 2784.12 1958.5 2759.5 1933.88 2759.5 1903.5Z" stroke="#595959" stroke-width="6.875" stroke-linecap="butt" stroke-linejoin="miter" stroke-miterlimit="8" stroke-opacity="1" fill="#595959" fill-rule="evenodd" fill-opacity="1"/><path d="M1782.1 1335.98 1846.27 1335.98 1846.27 1352.02 1782.1 1352.02ZM1894.4 1335.98 1958.56 1335.98 1958.56 1352.02 1894.4 1352.02ZM2006.69 1335.98 2070.85 1335.98 2070.85 1352.02 2006.69 1352.02ZM2118.98 1335.98 2183.15 1335.98 2183.15 1352.02 2118.98 1352.02ZM2231.27 1335.98 2295.44 1335.98 2295.44 1352.02 2231.27 1352.02ZM2343.56 1335.98 2407.73 1335.98 2407.73 1352.02 2343.56 1352.02ZM2455.85 1335.98 2520.02 1335.98 2520.02 1352.02 2455.85 1352.02ZM2568.15 1335.98 2632.31 1335.98 2632.31 1352.02 2568.15 1352.02ZM2680.44 1335.98 2744.6 1335.98 2744.6 1352.02 2680.44 1352.02ZM2792.73 1335.98 2821.63 1335.98 2821.63 1387.28 2805.59 1387.28 2805.59 1344 2813.61 1352.02 2792.73 1352.02ZM2821.63 1435.41 2821.63 1499.57 2805.59 1499.57 2805.59 1435.41ZM2821.63 1547.7 2821.63 1611.87 2805.59 1611.87 2805.59 1547.7ZM2821.63 1659.99 2821.63 1724.16 2805.59 1724.16 2805.59 1659.99ZM2821.63 1772.28 2821.63 1807.77 2805.59 1807.77 2805.59 1772.28ZM1790.13 1368.06 1742 1344 1790.13 1319.94ZM2837.68 1799.75 2813.61 1847.87 2789.55 1799.75Z" fill="#A02B93" fill-rule="nonzero" fill-opacity="1"/><path d="M1727.1 936.979 1791.27 936.979 1791.27 953.021 1727.1 953.021ZM1839.4 936.979 1903.56 936.979 1903.56 953.021 1839.4 953.021ZM1951.69 936.979 2015.85 936.979 2015.85 953.021 1951.69 953.021ZM2063.98 936.979 2128.15 936.979 2128.15 953.021 2063.98 953.021ZM2176.27 936.979 2240.44 936.979 2240.44 953.021 2176.27 953.021ZM2288.56 936.979 2352.73 936.979 2352.73 953.021 2288.56 953.021ZM2400.85 936.979 2465.02 936.979 2465.02 953.021 2400.85 953.021ZM2513.15 936.979 2577.31 936.979 2577.31 953.021 2513.15 953.021ZM2625.44 936.979 2689.6 936.979 2689.6 953.021 2625.44 953.021ZM2737.73 936.979 2773.51 936.979 2773.51 953.021 2737.73 953.021ZM1735.13 969.062 1687 945 1735.13 920.937ZM2765.49 920.938 2813.61 945 2765.49 969.063Z" fill="#E97132" fill-rule="nonzero" fill-opacity="1"/><path d="M11.4583-1.98727e-06 11.4587 2023.56-11.458 2023.56-11.4583 1.98727e-06ZM34.3754 2012.1 0.000360892 2080.85-34.3746 2012.1Z" fill="#404040" fill-rule="nonzero" fill-opacity="1" transform="matrix(1 0 0 -1 1114.5 2296.35)"/><path d="M1765.43 1393.87 1822.74 1422.73 1815.53 1437.06 1758.21 1408.2ZM1865.72 1444.37 1923.04 1473.23 1915.82 1487.56 1858.51 1458.7ZM1966.02 1494.87 2023.33 1523.73 2016.12 1538.06 1958.8 1509.2ZM2066.31 1545.37 2123.63 1574.23 2116.41 1588.55 2059.1 1559.7ZM2166.61 1595.87 2223.92 1624.73 2216.71 1639.05 2159.4 1610.2ZM2266.91 1646.37 2324.22 1675.22 2317 1689.55 2259.69 1660.7ZM2367.2 1696.87 2424.51 1725.72 2417.3 1740.05 2359.99 1711.2ZM2467.5 1747.37 2524.81 1776.22 2517.6 1790.55 2460.28 1761.69ZM2567.79 1797.87 2625.11 1826.72 2617.89 1841.05 2560.58 1812.19ZM2668.09 1848.37 2725.4 1877.22 2718.19 1891.55 2660.88 1862.69ZM1758.16 1426.13 1726 1383 1779.81 1383.15ZM2726.56 1859.85 2758.72 1902.98 2704.92 1902.83Z" fill="#4E95D9" fill-rule="nonzero" fill-opacity="1"/><text fill="#000000" fill-opacity="1" font-family="Aptos,Aptos_MSFontService,sans-serif" font-style="normal" font-variant="normal" font-weight="400" font-stretch="normal" font-size="83" text-anchor="start" direction="ltr" writing-mode="lr-tb" unicode-bidi="normal" text-decoration="none" transform="matrix(0.884751 0.466063 -0.466063 0.884751 1858.39 1551)">Euklidische Distanz</text><text fill="#000000" fill-opacity="1" font-family="Aptos,Aptos_MSFontService,sans-serif" font-style="normal" font-variant="normal" font-weight="400" font-stretch="normal" font-size="83" text-anchor="start" direction="ltr" writing-mode="lr-tb" unicode-bidi="normal" text-decoration="none" transform="matrix(1 0 0 1 1943.07 1314)">Manhattan</text><text fill="#000000" fill-opacity="1" font-family="Aptos,Aptos_MSFontService,sans-serif" font-style="normal" font-variant="normal" font-weight="400" font-stretch="normal" font-size="83" text-anchor="start" direction="ltr" writing-mode="lr-tb" unicode-bidi="normal" text-decoration="none" transform="matrix(1 0 0 1 2329.3 1314)">-</text><text fill="#000000" fill-opacity="1" font-family="Aptos,Aptos_MSFontService,sans-serif" font-style="normal" font-variant="normal" font-weight="400" font-stretch="normal" font-size="83" text-anchor="start" direction="ltr" writing-mode="lr-tb" unicode-bidi="normal" text-decoration="none" transform="matrix(1 0 0 1 2357.38 1314)">Distanz</text><text fill="#000000" fill-opacity="1" font-family="Aptos,Aptos_MSFontService,sans-serif" font-style="normal" font-variant="normal" font-weight="400" font-stretch="normal" font-size="83" text-anchor="start" direction="ltr" writing-mode="lr-tb" unicode-bidi="normal" text-decoration="none" transform="matrix(1 0 0 1 1882.97 923)">Maximum</text><text fill="#000000" fill-opacity="1" font-family="Aptos,Aptos_MSFontService,sans-serif" font-style="normal" font-variant="normal" font-weight="400" font-stretch="normal" font-size="83" text-anchor="start" direction="ltr" writing-mode="lr-tb" unicode-bidi="normal" text-decoration="none" transform="matrix(1 0 0 1 2235.31 923)">-</text><text fill="#000000" fill-opacity="1" font-family="Aptos,Aptos_MSFontService,sans-serif" font-style="normal" font-variant="normal" font-weight="400" font-stretch="normal" font-size="83" text-anchor="start" direction="ltr" writing-mode="lr-tb" unicode-bidi="normal" text-decoration="none" transform="matrix(1 0 0 1 2263.39 923)">Distanz</text></g></g></svg>